<svg width="56" height="39" viewBox="0 0 56 39" fill="none" xmlns="http://www.w3.org/2000/svg">
<g clip-path="url(#clip0_969_63)">
<path d="M47.58 0H8.04C3.59963 0 0 3.59963 0 8.04V30.25C0 34.6904 3.59963 38.29 8.04 38.29H47.58C52.0204 38.29 55.62 34.6904 55.62 30.25V8.04C55.62 3.59963 52.0204 0 47.58 0Z" fill="#9FCDBD"/>
<path d="M30.03 31.69C36.9556 31.69 42.57 26.0756 42.57 19.15C42.57 12.2243 36.9556 6.60999 30.03 6.60999C23.1043 6.60999 17.49 12.2243 17.49 19.15C17.49 26.0756 23.1043 31.69 30.03 31.69Z" fill="#BCDED3" stroke="white" stroke-width="5" stroke-miterlimit="10"/>
<path d="M11.85 3.06006H6.21001C5.481 3.06006 4.89001 3.65104 4.89001 4.38006V7.03006C4.89001 7.75907 5.481 8.35006 6.21001 8.35006H11.85C12.579 8.35006 13.17 7.75907 13.17 7.03006V4.38006C13.17 3.65104 12.579 3.06006 11.85 3.06006Z" fill="#E7EEEE"/>
</g>
<defs>
<clipPath id="clip0_969_63">
<rect width="55.62" height="38.29" fill="white"/>
</clipPath>
</defs>
</svg>
