<svg width="62" height="59" viewBox="0 0 62 59" fill="none" xmlns="http://www.w3.org/2000/svg">
<path d="M11.4598 57.4154C16.2657 55.7324 19.0829 51.2877 17.7522 47.4878C16.4215 43.6879 11.4468 41.9718 6.64093 43.6548C1.83503 45.3378 -0.982163 49.7826 0.34854 53.5825C1.67924 57.3824 6.65393 59.0984 11.4598 57.4154Z" fill="#132D2B"/>
<path d="M14.82 48.6501L14.91 5.24014L58.46 3.39014L58.38 46.8001" stroke="#132D2B" stroke-width="5" stroke-linecap="round" stroke-linejoin="round"/>
<path d="M55.0237 55.5717C59.8296 53.8887 62.6468 49.4439 61.3161 45.644C59.9854 41.8441 55.0107 40.1281 50.2048 41.8111C45.3989 43.4941 42.5817 47.9388 43.9124 51.7387C45.2431 55.5386 50.2178 57.2547 55.0237 55.5717Z" fill="#132D2B"/>
<path d="M33.0981 57.0346C37.904 55.3516 40.7212 50.9068 39.3905 47.1069C38.0598 43.307 33.0851 41.5909 28.2792 43.2739C23.4733 44.9569 20.6561 49.4017 21.9868 53.2016C23.3175 57.0015 28.2922 58.7176 33.0981 57.0346Z" fill="#132D2B"/>
<path d="M36.47 48.2601L36.55 4.8501" stroke="#132D2B" stroke-width="5" stroke-miterlimit="10" stroke-linecap="round"/>
<path d="M57.721 2.87675L15.3306 4.92773L15.7307 13.1981L58.1211 11.1471L57.721 2.87675Z" fill="#132D2B"/>
</svg>
