<svg width="57" height="63" viewBox="0 0 57 63" fill="none" xmlns="http://www.w3.org/2000/svg">
<path d="M14.5274 59.0999C19.5991 57.3238 22.5711 52.6303 21.1656 48.6167C19.7601 44.6031 14.5092 42.7892 9.43746 44.5653C4.36572 46.3414 1.39369 51.0349 2.79923 55.0485C4.20478 59.0621 9.45564 60.876 14.5274 59.0999Z" fill="#132D2B"/>
<path d="M19.15 50.47L19.23 4.63996L52.34 2.95996L52.26 48.79" stroke="#132D2B" stroke-width="5" stroke-linecap="round" stroke-linejoin="round"/>
<path d="M47.6347 57.4304C52.7064 55.6543 55.6784 50.9609 54.2729 46.9473C52.8674 42.9337 47.6165 41.1198 42.5448 42.8959C37.473 44.672 34.501 49.3655 35.9065 53.3791C37.3121 57.3927 42.5629 59.2065 47.6347 57.4304Z" fill="#132D2B"/>
<path d="M19.15 16.9901L52.32 15.3201" stroke="#132D2B" stroke-width="5" stroke-linejoin="round"/>
</svg>
