<svg width="52" height="11" viewBox="0 0 52 11" fill="none" xmlns="http://www.w3.org/2000/svg">
<path d="M5.02734 7.88672C3.87305 7.88672 3.05273 6.91992 3.04688 5.41406C3.05273 3.91992 3.88477 2.95898 5.02734 2.95312C5.85938 2.95898 6.28711 3.48633 6.44531 3.90234H6.49219V3.03516H7.20703V6.44531C7.22461 7.00195 7.48828 7.29492 7.94531 7.30078C8.73633 7.29492 9.25781 6.39258 9.26953 5.0625C9.26953 2.79492 7.62891 1.27734 5.28516 1.27734C2.90039 1.2832 1.32422 3.09375 1.3125 5.41406C1.31836 7.89258 2.74219 9.58008 5.25 9.5625C6.01758 9.55664 6.55078 9.50391 7.20703 9.32812V9.97266C6.63281 10.125 5.95898 10.2188 5.25 10.2188C2.41992 10.2188 0.632812 8.35547 0.632812 5.41406C0.626953 2.63086 2.56641 0.621094 5.28516 0.621094C8.0625 0.621094 9.95508 2.49609 9.94922 5.03906C9.94922 6.84375 9.07031 7.93359 7.89844 7.93359C7.1543 7.93359 6.59766 7.48828 6.54492 6.86719H6.49219C6.32812 7.27734 5.89453 7.88672 5.02734 7.88672ZM3.78516 5.40234C3.7793 6.43359 4.2832 7.20117 5.14453 7.19531C6.01172 7.19531 6.50391 6.45703 6.50391 5.40234C6.49805 4.37109 6.01758 3.64453 5.14453 3.64453C4.2832 3.64453 3.7793 4.39453 3.78516 5.40234ZM12.2461 5.05078V9H11.4375V0.515625H12.2461V3.64453H12.3047C12.6094 2.97656 13.2246 2.55469 14.1914 2.55469C15.4863 2.55469 16.3652 3.35742 16.3594 4.88672V9H15.5625V4.94531C15.5625 3.9082 14.9473 3.27539 13.9805 3.28125C12.9727 3.27539 12.2402 3.94922 12.2461 5.05078ZM17.7656 7.21875C17.7598 5.92383 18.8086 5.4375 20.1094 5.33203C20.5371 5.30859 21.5625 5.23828 21.8672 5.22656V4.62891C21.873 3.77344 21.3223 3.25195 20.3203 3.25781C19.4883 3.25195 18.9258 3.63867 18.7734 4.21875H17.9414C18.0762 3.21094 19.043 2.54883 20.3672 2.54297C21.3164 2.54883 22.6641 2.95312 22.6641 4.69922V9H21.8672V8.01562H21.8203C21.5625 8.56055 20.9297 9.14648 19.8633 9.14062C18.7031 9.14648 17.7598 8.44336 17.7656 7.21875ZM18.5625 7.25391C18.5625 8.00391 19.166 8.42578 19.9805 8.42578C21.1465 8.42578 21.873 7.58789 21.8672 6.57422V5.88867C21.5508 5.91797 20.543 5.99414 20.2266 6.01172C19.1016 6.08789 18.5625 6.52148 18.5625 7.25391ZM26.9883 9.12891C25.1895 9.13477 24.0645 7.79297 24.0703 5.85938C24.0645 3.92578 25.2129 2.54883 26.8711 2.54297C28.2539 2.54883 29.584 3.52148 29.5898 5.68359V6.05859H24.8672C24.9023 7.5 25.7227 8.41406 26.9883 8.41406C27.8613 8.41406 28.377 7.96289 28.6055 7.55859H29.4609C29.1738 8.4375 28.2715 9.13477 26.9883 9.12891ZM24.873 5.36719H28.7695C28.7695 4.17773 27.9961 3.26367 26.8828 3.26953C25.7344 3.26367 24.9434 4.22461 24.873 5.36719ZM35.0156 6.53906V2.63672H35.8125V9H35.0156V7.94531H34.957C34.6641 8.58984 34.0078 9.08203 33.0703 9.08203C31.8457 9.08203 30.9727 8.26758 30.9727 6.75V2.63672H31.7812V6.69141C31.7754 7.66992 32.4082 8.31445 33.3047 8.30859C34.1426 8.31445 35.0215 7.69922 35.0156 6.53906ZM38.332 5.05078V9H37.5234V2.63672H38.2969V3.64453H38.3672C38.6719 2.98242 39.3047 2.55469 40.2422 2.55469C41.5312 2.55469 42.3984 3.36914 42.3984 4.88672V9H41.6016V4.94531C41.6016 3.91992 40.9922 3.27539 40.0312 3.28125C39.041 3.27539 38.3262 3.94922 38.332 5.05078ZM47.0039 9V0.515625H47.8125V5.58984H47.8945L50.8242 2.63672H51.832L49.125 5.36719L51.9961 9H50.9883L48.5273 5.88281L47.8125 6.55664V9H47.0039Z" fill="black"/>
</svg>
