<svg width="62" height="280" viewBox="0 0 62 280" fill="none" xmlns="http://www.w3.org/2000/svg">
<g clip-path="url(#clip0_460_494)">
<path d="M33.9601 56.4076C39.0057 54.6407 41.964 49.9757 40.5676 45.9882C39.1712 42.0006 33.9489 40.2005 28.9032 41.9675C23.8575 43.7345 20.8992 48.3994 22.2956 52.3869C23.6921 56.3745 28.9144 58.1746 33.9601 56.4076Z" fill="#132D2B"/>
<path d="M38.56 47.82L38.65 2.26001C38.65 2.04001 38.91 1.92001 39.08 2.06001C41.55 4.07001 54.12 11.83 49.36 26.7" stroke="#132D2B" stroke-width="4" stroke-miterlimit="10" stroke-linecap="round"/>
<path d="M18.5274 168.1C23.5991 166.324 26.5711 161.63 25.1656 157.617C23.7601 153.603 18.5092 151.789 13.4375 153.565C8.36572 155.341 5.39369 160.035 6.79923 164.049C8.20478 168.062 13.4556 169.876 18.5274 168.1Z" fill="#132D2B"/>
<path d="M23.15 159.47L23.23 113.64L56.34 111.96L56.26 157.79" stroke="#132D2B" stroke-width="5" stroke-linecap="round" stroke-linejoin="round"/>
<path d="M51.6347 166.43C56.7064 164.654 59.6784 159.961 58.2729 155.947C56.8674 151.934 51.6165 150.12 46.5448 151.896C41.473 153.672 38.501 158.365 39.9065 162.379C41.3121 166.393 46.5629 168.207 51.6347 166.43Z" fill="#132D2B"/>
<path d="M23.15 125.99L56.32 124.32" stroke="#132D2B" stroke-width="5" stroke-linejoin="round"/>
<path d="M11.4598 278.415C16.2657 276.732 19.0829 272.288 17.7522 268.488C16.4215 264.688 11.4468 262.972 6.64093 264.655C1.83503 266.338 -0.982163 270.783 0.34854 274.582C1.67924 278.382 6.65393 280.098 11.4598 278.415Z" fill="#132D2B"/>
<path d="M14.82 269.65L14.91 226.24L58.46 224.39L58.38 267.8" stroke="#132D2B" stroke-width="5" stroke-linecap="round" stroke-linejoin="round"/>
<path d="M55.0237 276.572C59.8296 274.889 62.6468 270.444 61.3161 266.644C59.9854 262.844 55.0107 261.128 50.2048 262.811C45.3989 264.494 42.5817 268.939 43.9124 272.739C45.2431 276.539 50.2178 278.255 55.0237 276.572Z" fill="#132D2B"/>
<path d="M33.0981 278.035C37.904 276.352 40.7212 271.907 39.3905 268.107C38.0598 264.307 33.0851 262.591 28.2792 264.274C23.4733 265.957 20.6561 270.402 21.9868 274.202C23.3175 278.001 28.2922 279.718 33.0981 278.035Z" fill="#132D2B"/>
<path d="M36.47 269.26L36.55 225.85" stroke="#132D2B" stroke-width="5" stroke-miterlimit="10" stroke-linecap="round"/>
<path d="M57.721 223.877L15.3306 225.928L15.7307 234.198L58.1211 232.147L57.721 223.877Z" fill="#132D2B"/>
</g>
<defs>
<clipPath id="clip0_460_494">
<rect width="61.62" height="279.07" fill="white"/>
</clipPath>
</defs>
</svg>
