<svg width="115" height="505" viewBox="0 0 115 505" fill="none" xmlns="http://www.w3.org/2000/svg">
<g clip-path="url(#clip0_460_510)">
<path opacity="0.63" d="M115 0H0V45H115V0Z" fill="#EEFFF8"/>
<path opacity="0.63" d="M115 58H30V505H115V58Z" fill="#EEFFF8"/>
<path d="M49.8122 25.58L51.3522 26.12C50.1322 27.9 48.3322 29.78 46.8122 30.98C46.5122 30.7 45.8322 30.24 45.4522 30.02C47.0522 28.92 48.7322 27.22 49.8122 25.58ZM57.4322 26.28L58.6922 25.52C60.3522 26.86 62.4122 28.78 63.4122 30.06L62.0722 30.92C61.1322 29.66 59.1122 27.68 57.4322 26.28ZM46.7922 17.58L47.7922 16.5C49.7322 17.6 52.2522 19.28 53.4722 20.46L52.3922 21.7C51.2322 20.5 48.7722 18.74 46.7922 17.58ZM57.5322 20.16L58.7722 19.38C60.5522 21.02 62.7122 23.28 63.6922 24.8L62.3322 25.68C61.3922 24.18 59.3322 21.82 57.5322 20.16ZM53.6122 23.4H55.2122V31.6H53.6122V23.4ZM45.4722 22.76C49.3922 22.72 55.7122 22.58 61.5922 22.42L61.4922 23.86C55.7722 24.04 49.6322 24.24 45.6722 24.34L45.4722 22.76ZM58.0522 15.06L59.5722 15.84C56.9722 18.6 53.3322 21.86 50.4722 23.88L49.2922 23.14C52.1522 21.08 55.8322 17.66 58.0522 15.06ZM52.8122 13.08L54.3522 13.82C53.0322 15.46 51.2922 17.38 49.9122 18.58L48.7322 17.9C50.0922 16.66 51.8322 14.6 52.8122 13.08ZM70.0624 32.368V18.256H73.7104V19.6H71.6624V31.024H73.7104V32.368H70.0624ZM90.1351 17.328V24.528H88.6951V17.328H90.1351ZM78.6151 23.28C80.7911 22.56 82.1191 20.72 82.1351 18.768V17.68H83.6391V18.768C83.6391 20.656 84.9831 22.368 87.1271 23.024L86.3911 24.176C84.7591 23.648 83.5271 22.544 82.9031 21.12C82.2791 22.656 81.0311 23.872 79.3511 24.432L78.6151 23.28ZM80.9511 26.384V25.2H90.1671V28.688H82.4551V30H90.6151V31.184H81.0151V27.568H88.6951V26.384H80.9511ZM99.8054 18.256V32.368H96.1574V31.024H98.2054V19.6H96.1574V18.256H99.8054Z" fill="black"/>
</g>
<defs>
<clipPath id="clip0_460_510">
<rect width="115" height="505" fill="white"/>
</clipPath>
</defs>
</svg>
