<svg width="594" height="128" viewBox="0 0 594 128" fill="none" xmlns="http://www.w3.org/2000/svg">
<path d="M163.906 4.7C172.366 4.745 178.486 8.93 178.486 15.23C178.486 21.08 173.356 24.995 165.976 25.58V33.32H182.086V36.83H145.996V33.32H161.836V25.58C154.591 24.995 149.416 21.08 149.416 15.23C149.416 8.93 155.581 4.745 163.906 4.7ZM153.466 15.23C153.466 19.595 157.876 22.34 163.906 22.34C170.026 22.34 174.436 19.595 174.436 15.23C174.436 10.91 170.026 8.12 163.906 8.12C157.876 8.12 153.466 10.91 153.466 15.23ZM216.658 11.27V14.69H189.658V2.9H193.708V11.27H216.658ZM184.888 21.53V18.2H220.888V21.53H184.888ZM189.208 27.92V24.68H216.388V34.31H193.528V37.91H217.738V41.24H189.298V31.25H212.248V27.92H189.208ZM236.649 5.15C242.859 5.15 247.314 9.02 247.359 14.51C247.314 20.09 242.859 23.915 236.649 23.96C230.439 23.915 225.894 20.09 225.939 14.51C225.894 9.02 230.439 5.15 236.649 5.15ZM223.959 29.81C231.159 29.855 241.104 29.81 249.699 28.55L250.059 31.61C241.104 33.275 231.564 33.32 224.499 33.32L223.959 29.81ZM229.989 14.51C229.989 18.02 232.779 20.315 236.649 20.27C240.429 20.315 243.264 18.02 243.309 14.51C243.264 11.09 240.429 8.795 236.649 8.75C232.779 8.795 229.989 11.09 229.989 14.51ZM252.219 41.78V2.36H256.359V41.78H252.219ZM281.712 14.6H307.677V17.66H281.712V14.6ZM293.007 7.445H296.202C295.752 20.63 294.492 29.54 283.197 34.085C282.837 33.32 281.892 32.105 281.172 31.475C291.747 27.47 292.647 19.505 293.007 7.445ZM296.472 16.31C298.002 23.735 301.512 28.91 308.127 31.205C307.407 31.79 306.462 33.095 306.012 33.95C298.992 31.115 295.392 25.355 293.682 16.76L296.472 16.31ZM275.907 2.315H313.617V41.6H310.152V5.555H279.282V41.6H275.907V2.315ZM277.887 36.335H311.547V39.575H277.887V36.335ZM334.047 14.51H359.787V17.3H334.047V14.51ZM340.977 3.08H353.937V5.6H340.977V3.08ZM339.267 9.335H353.262V11.81H339.267V9.335ZM340.392 0.199998L343.452 0.514997C342.597 4.61 341.337 9.83 340.347 13.07L337.287 12.665C338.277 9.425 339.582 4.16 340.392 0.199998ZM353.127 3.08H353.487L353.982 2.945L356.232 3.305C355.647 7.13 354.657 12.125 353.757 15.995L350.787 15.635C351.687 11.765 352.677 6.32 353.127 3.485V3.08ZM326.037 0.244998L328.917 1.325C327.297 4.655 325.182 8.705 323.517 11.225L321.267 10.235C322.842 7.625 324.912 3.215 326.037 0.244998ZM330.807 5.375L333.597 6.635C330.627 11.63 326.487 18.02 323.247 21.89L321.222 20.81C324.417 16.805 328.467 10.1 330.807 5.375ZM318.837 9.56L320.637 7.4C323.022 9.605 325.767 12.665 326.937 14.69L325.047 17.165C323.922 15.005 321.222 11.81 318.837 9.56ZM329.097 15.545L331.482 14.645C333.192 17.615 334.857 21.575 335.307 24.095L332.787 25.175C332.292 22.655 330.762 18.605 329.097 15.545ZM318.477 20.135C322.212 19.955 327.567 19.685 332.967 19.37V22.25C327.882 22.565 322.752 22.88 318.837 23.15L318.477 20.135ZM329.952 26.48L332.337 25.805C333.417 28.325 334.317 31.61 334.542 33.77L331.977 34.535C331.797 32.375 330.942 29.045 329.952 26.48ZM321.177 25.94L323.967 26.435C323.382 30.665 322.302 35.03 320.907 37.91C320.367 37.505 319.062 36.92 318.387 36.65C319.827 33.905 320.682 29.855 321.177 25.94ZM325.722 21.44H328.647V41.6H325.722V21.44ZM346.512 15.32L349.122 16.22C346.332 19.775 341.337 22.835 336.927 24.725C336.567 24.14 335.667 22.97 335.037 22.43C339.402 20.855 344.037 18.29 346.512 15.32ZM341.787 21.08L344.127 19.775C352.317 26.165 352.092 37.595 348.582 40.385C347.502 41.375 346.467 41.645 344.847 41.69C343.992 41.69 343.002 41.645 341.922 41.6C341.877 40.835 341.697 39.62 341.202 38.72C342.417 38.9 343.362 38.945 344.217 38.945C345.162 38.945 345.927 38.855 346.557 38.135C348.807 36.11 348.852 26.705 341.787 21.08ZM350.562 15.95C352.182 24.545 355.602 32.42 360.957 36.02C360.237 36.605 359.202 37.73 358.707 38.585C353.127 34.31 349.707 25.985 347.907 16.49L350.562 15.95ZM357.987 19.415L360.192 21.8C357.852 23.78 355.152 25.94 353.037 27.335L351.372 25.4C353.397 23.915 356.322 21.26 357.987 19.415ZM345.207 23.105L347.322 24.5C344.892 26.975 340.302 29.945 336.702 31.565C336.297 30.845 335.532 29.765 334.902 29.18C338.367 28.01 342.957 25.4 345.207 23.105ZM347.277 28.055L349.482 29.54C346.242 33.545 339.987 37.775 334.767 39.935C334.317 39.17 333.507 38.135 332.832 37.55C338.097 35.795 344.307 31.835 347.277 28.055ZM377.897 41.552V20.384H383.369V22.4H380.297V39.536H383.369V41.552H377.897ZM402.194 18.992V34.256H399.986V18.992H402.194ZM385.202 25.616C385.202 22.592 387.626 20.432 390.818 20.432C393.962 20.432 396.386 22.592 396.386 25.616C396.386 28.712 393.962 30.848 390.818 30.848C387.626 30.848 385.202 28.712 385.202 25.616ZM387.362 25.616C387.362 27.608 388.85 28.904 390.818 28.928C392.714 28.904 394.202 27.608 394.178 25.616C394.202 23.696 392.714 22.376 390.818 22.352C388.85 22.376 387.362 23.696 387.362 25.616ZM388.466 39.536V32.72H390.674V37.76H402.818V39.536H388.466ZM407.913 38.144C407.001 38.168 406.233 37.424 406.233 36.512C406.233 35.576 407.001 34.832 407.913 34.832C408.801 34.832 409.569 35.576 409.545 36.512C409.569 37.424 408.801 38.168 407.913 38.144ZM406.233 27.248C406.233 26.312 407.001 25.568 407.913 25.568C408.801 25.568 409.569 26.312 409.545 27.248C409.569 28.16 408.801 28.904 407.913 28.88C407.001 28.904 406.233 28.16 406.233 27.248ZM429.361 18.992V34.496H427.153V29.024H421.897C420.913 30.2 419.401 30.92 417.649 30.944C414.505 30.92 412.153 28.712 412.177 25.616C412.153 22.52 414.505 20.312 417.649 20.288C419.377 20.312 420.865 21.008 421.873 22.16H427.153V18.992H429.361ZM414.289 25.616C414.265 27.608 415.681 28.952 417.649 28.976C419.545 28.952 420.985 27.608 421.009 25.616C420.985 23.648 419.545 22.28 417.649 22.256C415.681 22.28 414.265 23.648 414.289 25.616ZM415.729 39.536V32.864H417.937V37.76H429.889V39.536H415.729ZM422.881 23.984C423.025 24.488 423.121 25.04 423.121 25.616C423.121 26.168 423.025 26.696 422.881 27.2H427.153V23.984H422.881ZM437.863 20.384V41.552H432.391V39.536H435.463V22.4H432.391V20.384H437.863ZM123.117 63.816V75.264H121.749V69.288H118.545V68.136H121.749V63.816H123.117ZM110.229 72.132C112.551 71.34 114.225 69.27 114.225 67.02V66.228H110.697V65.076H119.121V66.228H115.629V67.02C115.611 69.054 117.177 71.016 119.481 71.808L118.761 72.888C116.979 72.258 115.611 70.962 114.945 69.36C114.261 71.16 112.803 72.582 110.949 73.284L110.229 72.132ZM113.109 79.08V74.256H114.477V77.928H123.585V79.08H113.109ZM131.294 67.992C131.276 70.854 133.22 73.716 135.506 74.76L134.678 75.876C132.896 74.994 131.348 73.14 130.61 70.89C129.89 73.266 128.342 75.246 126.506 76.164L125.642 75.012C127.982 73.95 129.908 70.962 129.926 67.992V65.148H131.294V67.992ZM137.234 79.44V63.816H138.602V79.44H137.234ZM154.698 63.816V79.44H153.366V63.816H154.698ZM141.486 70.548C141.486 67.218 142.8 65.13 144.834 65.112C146.724 65.13 148.02 66.948 148.2 69.9H150.234V64.14H151.53V78.648H150.234V71.052H148.2C148.056 74.094 146.76 75.984 144.834 75.984C142.8 75.984 141.486 73.878 141.486 70.548ZM142.782 70.548C142.764 73.086 143.574 74.688 144.834 74.652C146.112 74.688 146.922 73.086 146.922 70.548C146.922 68.01 146.112 66.408 144.834 66.408C143.574 66.408 142.764 68.01 142.782 70.548ZM173.567 63.816V67.956H175.907V69.144H173.567V73.212H172.199V63.816H173.567ZM161.399 66.588V65.472H165.359V63.672H166.727V65.472H170.687V66.588H161.399ZM162.299 70.152C162.263 68.496 163.775 67.38 166.043 67.38C168.293 67.38 169.787 68.496 169.787 70.152C169.787 71.862 168.293 72.96 166.043 72.96C163.775 72.96 162.263 71.862 162.299 70.152ZM163.595 70.152C163.595 71.232 164.567 71.88 166.043 71.88C167.501 71.88 168.491 71.232 168.491 70.152C168.491 69.144 167.501 68.46 166.043 68.46C164.567 68.46 163.595 69.144 163.595 70.152ZM163.703 79.224V74.112H173.567V79.224H163.703ZM165.071 78.072H172.199V75.228H165.071V78.072ZM180.771 65.688C180.771 68.982 180.303 72.672 178.035 75.696L176.955 75.084C178.899 72.618 179.457 69.72 179.583 66.84H177.243V65.688H180.771ZM180.447 76.092C182.607 73.338 182.985 69.756 183.057 66.84H181.275V65.688H184.263C184.263 66.966 184.227 68.424 184.029 69.936H186.099V64.212H187.431V78.648H186.099V71.088H183.849C183.489 73.05 182.805 75.03 181.527 76.74L180.447 76.092ZM189.015 79.44V63.816H190.347V79.44H189.015ZM204.176 73.608C207.38 73.626 209.324 74.688 209.324 76.524C209.324 78.342 207.38 79.404 204.176 79.404C200.954 79.404 198.992 78.342 198.992 76.524C198.992 74.688 200.954 73.626 204.176 73.608ZM197.624 71.988V64.788H198.992V67.164H203.528V64.788H204.896V71.988H197.624ZM198.992 70.872H203.528V68.28H198.992V70.872ZM200.36 76.524C200.36 77.622 201.818 78.306 204.176 78.288C206.534 78.306 207.974 77.622 207.992 76.524C207.974 75.39 206.534 74.724 204.176 74.724C201.818 74.724 200.36 75.39 200.36 76.524ZM207.812 73.212V63.816H209.18V67.74H211.52V68.928H209.18V73.212H207.812ZM226.789 71.808V72.924H220.453V76.128H219.085V72.924H212.497V71.808H226.789ZM214.333 79.08V74.58H215.701V77.928H225.205V79.08H214.333ZM214.369 70.008V64.572H224.953V70.008H214.369ZM215.701 68.892H223.585V65.652H215.701V68.892ZM240.293 63.816V68.964H242.633V70.116H240.293V75.516H238.925V63.816H240.293ZM228.125 66.876V65.724H232.085V63.816H233.453V65.724H237.413V66.876H228.125ZM229.025 70.656C228.989 68.856 230.519 67.722 232.769 67.704C235.001 67.722 236.513 68.856 236.513 70.656C236.513 72.402 235.001 73.518 232.769 73.536C230.519 73.518 228.989 72.402 229.025 70.656ZM230.321 70.656C230.321 71.736 231.293 72.438 232.769 72.42C234.227 72.438 235.217 71.736 235.217 70.656C235.217 69.522 234.227 68.802 232.769 68.784C231.293 68.802 230.321 69.522 230.321 70.656ZM230.501 79.08V74.58H231.869V77.928H241.013V79.08H230.501ZM260.35 63.816V67.884H262.69V69.036H260.35V73.14H258.982V63.816H260.35ZM248.866 71.844V65.004H255.778V66.156H250.198V70.728C253.366 70.71 255.184 70.62 257.29 70.188L257.434 71.34C255.238 71.754 253.366 71.844 250.054 71.844H248.866ZM250.162 76.416C250.162 74.526 252.142 73.446 255.346 73.428C258.532 73.446 260.494 74.526 260.494 76.416C260.494 78.306 258.532 79.386 255.346 79.404C252.142 79.386 250.162 78.306 250.162 76.416ZM251.53 76.416C251.512 77.568 252.988 78.27 255.346 78.288C257.686 78.27 259.162 77.568 259.162 76.416C259.162 75.246 257.686 74.562 255.346 74.58C252.988 74.562 251.512 75.246 251.53 76.416ZM276.591 63.816V75.264H275.223V63.816H276.591ZM263.847 71.916C266.205 71.016 267.825 68.73 267.807 66.264V64.68H269.211V66.264C269.211 68.64 270.831 70.782 273.171 71.628L272.451 72.744C270.633 72.024 269.211 70.62 268.527 68.82C267.843 70.746 266.439 72.276 264.603 73.032L263.847 71.916ZM266.511 79.08V74.22H267.879V77.928H277.095V79.08H266.511ZM284.371 64.932C286.819 64.95 288.547 66.444 288.583 68.604C288.547 70.782 286.819 72.276 284.371 72.276C281.887 72.276 280.123 70.782 280.123 68.604C280.123 66.444 281.887 64.95 284.371 64.932ZM279.331 74.832C282.211 74.85 286.189 74.814 289.663 74.292L289.771 75.336C286.189 76.002 282.337 76.02 279.511 76.02L279.331 74.832ZM281.491 68.604C281.491 70.062 282.697 71.07 284.371 71.088C286.009 71.07 287.215 70.062 287.215 68.604C287.215 67.164 286.009 66.156 284.371 66.156C282.697 66.156 281.491 67.164 281.491 68.604ZM290.671 79.44V63.816H292.075V79.44H290.671ZM312.204 63.816V75.228H310.836V63.816H312.204ZM299.676 68.748C299.658 66.48 301.422 64.914 303.78 64.896C306.102 64.914 307.848 66.48 307.848 68.748C307.848 71.016 306.102 72.6 303.78 72.564C301.422 72.6 299.658 71.016 299.676 68.748ZM301.008 68.748C301.008 70.296 302.178 71.376 303.78 71.376C305.31 71.376 306.516 70.296 306.516 68.748C306.516 67.218 305.31 66.12 303.78 66.12C302.178 66.12 301.008 67.218 301.008 68.748ZM302.124 79.08V74.076H303.492V77.928H312.708V79.08H302.124ZM327.797 63.816V75.372H326.429V71.124H322.397C321.659 72.06 320.507 72.618 319.157 72.6C316.817 72.618 315.089 70.998 315.125 68.712C315.089 66.426 316.817 64.806 319.157 64.788C320.489 64.806 321.641 65.346 322.361 66.264H326.429V63.816H327.797ZM316.421 68.712C316.421 70.278 317.573 71.394 319.157 71.412C320.705 71.394 321.875 70.278 321.857 68.712C321.875 67.164 320.705 66.048 319.157 66.012C317.573 66.048 316.421 67.164 316.421 68.712ZM317.789 79.08V74.148H319.157V77.928H328.265V79.08H317.789ZM322.991 70.008H326.429V67.416H322.991C323.117 67.812 323.189 68.244 323.189 68.712C323.189 69.18 323.117 69.612 322.991 70.008ZM337.521 64.068C341.013 64.086 343.047 65.04 343.029 66.768C343.047 68.532 341.013 69.504 337.521 69.504C334.047 69.504 331.995 68.532 331.977 66.768C331.995 65.04 334.047 64.086 337.521 64.068ZM330.429 71.7V70.584H344.649V71.7H330.429ZM332.157 74.112V73.032H342.813V76.524H333.525V78.144H343.281V79.26H332.193V75.516H341.481V74.112H332.157ZM333.453 66.768C333.417 67.848 334.947 68.46 337.521 68.46C340.131 68.46 341.643 67.848 341.625 66.768C341.643 65.742 340.131 65.13 337.521 65.112C334.947 65.13 333.417 65.742 333.453 66.768ZM354.878 64.752C357.254 64.734 358.964 66.246 358.982 68.424C358.964 70.62 357.254 72.114 354.878 72.132C352.502 72.114 350.756 70.62 350.774 68.424C350.756 66.246 352.502 64.734 354.878 64.752ZM352.142 68.424C352.106 69.918 353.276 70.944 354.878 70.944C356.462 70.944 357.614 69.918 357.65 68.424C357.614 66.948 356.462 65.922 354.878 65.94C353.276 65.922 352.106 66.948 352.142 68.424ZM352.466 74.94V73.824H362.69V79.44H361.322V74.94H352.466ZM361.322 72.996V63.816H362.69V67.848H365.03V69H362.69V72.996H361.322ZM380.335 76.272V77.424H366.043V76.272H372.451V72.888H367.735V64.896H369.103V67.74H377.203V64.896H378.571V72.888H373.819V76.272H380.335ZM369.103 71.772H377.203V68.856H369.103V71.772ZM394.991 63.816V79.44H393.659V63.816H394.991ZM381.779 70.548C381.779 67.218 383.093 65.13 385.127 65.112C387.017 65.13 388.313 66.948 388.493 69.9H390.527V64.14H391.823V78.648H390.527V71.052H388.493C388.349 74.094 387.053 75.984 385.127 75.984C383.093 75.984 381.779 73.878 381.779 70.548ZM383.075 70.548C383.057 73.086 383.867 74.688 385.127 74.652C386.405 74.688 387.215 73.086 387.215 70.548C387.215 68.01 386.405 66.408 385.127 66.408C383.867 66.408 383.057 68.01 383.075 70.548ZM413.86 63.816V67.38H416.236V68.568H413.86V72.636H412.492V63.816H413.86ZM402.412 71.448V64.608H403.78V70.296C406.012 70.278 408.316 70.08 410.836 69.576L411.016 70.728C408.352 71.268 405.994 71.43 403.636 71.448H402.412ZM403.96 79.188V73.5H413.86V79.188H403.96ZM405.292 78.072H412.528V74.58H405.292V78.072ZM425.132 65.508C425.132 66.39 425.042 67.254 424.88 68.1H428.768V63.78H430.136V79.404H428.768V73.428H424.376V72.276H428.768V69.216H424.592C423.692 72.114 421.622 74.67 417.932 76.488L417.212 75.336C421.37 73.32 423.458 70.314 423.728 66.624H417.896V65.508H425.132ZM440.653 66.012C440.635 68.1 443.425 69.882 446.161 70.296L445.621 71.376C443.191 70.962 440.833 69.666 439.879 67.794C438.907 69.666 436.549 70.962 434.137 71.376L433.597 70.296C436.315 69.882 439.087 68.1 439.105 66.012V65.904H434.101V64.788H445.621V65.904H440.653V66.012ZM432.769 73.86V72.708H446.989V73.86H440.509V79.404H439.177V73.86H432.769ZM452.934 68.244C452.952 70.728 454.158 73.41 456.246 74.652L455.454 75.696C453.942 74.796 452.862 73.14 452.304 71.25C451.728 73.32 450.576 75.102 449.01 76.056L448.146 75.012C450.306 73.752 451.62 70.98 451.602 68.316V65.256H452.934V68.244ZM454.518 70.584V69.396H457.146V64.14H458.478V78.648H457.146V70.584H454.518ZM460.386 79.44V63.816H461.718V79.44H460.386ZM478.174 76.272V77.424H463.882V76.272H467.41V72.042C466.078 71.358 465.268 70.224 465.286 68.82C465.268 66.39 467.644 64.806 470.974 64.788C474.322 64.806 476.698 66.39 476.698 68.82C476.698 70.206 475.906 71.322 474.61 72.006V76.272H478.174ZM466.618 68.82C466.6 70.548 468.418 71.718 470.974 71.736C473.53 71.718 475.366 70.548 475.366 68.82C475.366 67.056 473.53 65.904 470.974 65.904C468.418 65.904 466.6 67.056 466.618 68.82ZM468.778 76.272H473.242V72.546C472.558 72.726 471.802 72.816 470.974 72.816C470.182 72.816 469.444 72.726 468.778 72.564V76.272ZM481.959 65.256L481.851 74.4H480.375L480.231 65.256H481.959ZM479.979 76.956C479.979 76.344 480.501 75.84 481.131 75.84C481.743 75.84 482.247 76.344 482.247 76.956C482.247 77.586 481.743 78.108 481.131 78.108C480.501 78.108 479.979 77.586 479.979 76.956ZM136.374 89.004C138.516 89.022 140.046 90.84 140.262 93.756H143.754V87.816H145.122V103.44H143.754V94.908H140.28C140.118 97.986 138.57 99.894 136.374 99.912C134.07 99.894 132.45 97.788 132.486 94.44C132.45 91.128 134.07 89.022 136.374 89.004ZM133.782 94.44C133.782 96.996 134.844 98.67 136.374 98.652C137.922 98.67 138.984 96.996 138.966 94.44C138.984 91.92 137.922 90.246 136.374 90.228C134.844 90.246 133.782 91.92 133.782 94.44ZM152.074 89.4V90.516H149.59V98.238C150.364 98.22 151.21 98.148 152.182 97.932L152.326 99.084C150.994 99.39 149.878 99.408 148.87 99.408H148.222V89.4H152.074ZM152.974 99.408V89.4H157.222V90.516H154.342V98.256C155.602 98.22 156.682 98.166 157.87 97.86L158.014 99.012C156.574 99.372 155.368 99.408 153.766 99.408H152.974ZM156.466 94.692V93.54H159.49V87.816H160.858V103.44H159.49V94.692H156.466ZM175.515 87.816V92.964H177.855V94.116H175.515V99.516H174.147V87.816H175.515ZM163.347 90.876V89.724H167.307V87.816H168.675V89.724H172.635V90.876H163.347ZM164.247 94.656C164.211 92.856 165.741 91.722 167.991 91.704C170.223 91.722 171.735 92.856 171.735 94.656C171.735 96.402 170.223 97.518 167.991 97.536C165.741 97.518 164.211 96.402 164.247 94.656ZM165.543 94.656C165.543 95.736 166.515 96.438 167.991 96.42C169.449 96.438 170.439 95.736 170.439 94.656C170.439 93.522 169.449 92.802 167.991 92.784C166.515 92.802 165.543 93.522 165.543 94.656ZM165.723 103.08V98.58H167.091V101.928H176.235V103.08H165.723ZM196.256 87.816V99.228H194.888V87.816H196.256ZM183.728 92.748C183.71 90.48 185.474 88.914 187.832 88.896C190.154 88.914 191.9 90.48 191.9 92.748C191.9 95.016 190.154 96.6 187.832 96.564C185.474 96.6 183.71 95.016 183.728 92.748ZM185.06 92.748C185.06 94.296 186.23 95.376 187.832 95.376C189.362 95.376 190.568 94.296 190.568 92.748C190.568 91.218 189.362 90.12 187.832 90.12C186.23 90.12 185.06 91.218 185.06 92.748ZM186.176 103.08V98.076H187.544V101.928H196.76V103.08H186.176ZM211.848 87.816V99.372H210.48V95.124H206.448C205.71 96.06 204.558 96.618 203.208 96.6C200.868 96.618 199.14 94.998 199.176 92.712C199.14 90.426 200.868 88.806 203.208 88.788C204.54 88.806 205.692 89.346 206.412 90.264H210.48V87.816H211.848ZM200.472 92.712C200.472 94.278 201.624 95.394 203.208 95.412C204.756 95.394 205.926 94.278 205.908 92.712C205.926 91.164 204.756 90.048 203.208 90.012C201.624 90.048 200.472 91.164 200.472 92.712ZM201.84 103.08V98.148H203.208V101.928H212.316V103.08H201.84ZM207.042 94.008H210.48V91.416H207.042C207.168 91.812 207.24 92.244 207.24 92.712C207.24 93.18 207.168 93.612 207.042 94.008ZM221.573 88.824C224.849 88.824 227.297 90.534 227.297 93.108C227.297 95.718 224.849 97.41 221.573 97.392C218.315 97.41 215.867 95.718 215.885 93.108C215.867 90.534 218.315 88.824 221.573 88.824ZM214.481 101.352V100.2H228.773V101.352H214.481ZM217.181 93.108C217.181 94.998 219.071 96.276 221.573 96.276C224.093 96.276 225.965 94.998 225.965 93.108C225.965 91.236 224.093 89.922 221.573 89.94C219.071 89.922 217.181 91.236 217.181 93.108ZM244.33 100.308V101.496H230.038V100.308H236.446V97.392H231.802V92.568H241.162V90.12H231.766V88.968H242.53V93.684H233.17V96.24H242.89V97.392H237.814V100.308H244.33ZM262.946 87.816V103.44H261.578V87.816H262.946ZM250.67 94.44C250.67 91.128 252.326 89.022 254.666 89.004C256.97 89.022 258.644 91.128 258.662 94.44C258.644 97.788 256.97 99.894 254.666 99.912C252.326 99.894 250.67 97.788 250.67 94.44ZM252.002 94.44C252.002 96.996 253.082 98.67 254.666 98.652C256.214 98.67 257.294 96.996 257.294 94.44C257.294 91.92 256.214 90.246 254.666 90.228C253.082 90.246 252.002 91.92 252.002 94.44ZM283.075 87.816V99.264H281.707V93.288H278.503V92.136H281.707V87.816H283.075ZM270.187 96.132C272.509 95.34 274.183 93.27 274.183 91.02V90.228H270.655V89.076H279.079V90.228H275.587V91.02C275.569 93.054 277.135 95.016 279.439 95.808L278.719 96.888C276.937 96.258 275.569 94.962 274.903 93.36C274.219 95.16 272.761 96.582 270.907 97.284L270.187 96.132ZM273.067 103.08V98.256H274.435V101.928H283.543V103.08H273.067ZM291.252 91.992C291.234 94.854 293.178 97.716 295.464 98.76L294.636 99.876C292.854 98.994 291.306 97.14 290.568 94.89C289.848 97.266 288.3 99.246 286.464 100.164L285.6 99.012C287.94 97.95 289.866 94.962 289.884 91.992V89.148H291.252V91.992ZM297.192 103.44V87.816H298.56V103.44H297.192ZM315.52 95.052V96.132H301.228V95.052H315.52ZM302.956 98.436V97.392H313.756V100.704H304.36V102.216H314.26V103.224H302.992V99.768H312.388V98.436H302.956ZM303.028 89.256V88.284H313.684V91.524H304.468V92.892H313.972V93.9H303.1V90.552H312.316V89.256H303.028ZM328.521 97.608C331.725 97.626 333.669 98.688 333.669 100.524C333.669 102.342 331.725 103.404 328.521 103.404C325.299 103.404 323.337 102.342 323.337 100.524C323.337 98.688 325.299 97.626 328.521 97.608ZM321.969 95.988V88.788H323.337V91.164H327.873V88.788H329.241V95.988H321.969ZM323.337 94.872H327.873V92.28H323.337V94.872ZM324.705 100.524C324.705 101.622 326.163 102.306 328.521 102.288C330.879 102.306 332.319 101.622 332.337 100.524C332.319 99.39 330.879 98.724 328.521 98.724C326.163 98.724 324.705 99.39 324.705 100.524ZM332.157 97.212V87.816H333.525V91.74H335.865V92.928H333.525V97.212H332.157ZM351.133 95.808V96.924H344.797V100.128H343.429V96.924H336.841V95.808H351.133ZM338.677 103.08V98.58H340.045V101.928H349.549V103.08H338.677ZM338.713 94.008V88.572H349.297V94.008H338.713ZM340.045 92.892H347.929V89.652H340.045V92.892ZM364.53 87.816V94.26H367.122V95.412H364.53V103.44H363.162V87.816H364.53ZM352.326 91.452V90.3H356.358V87.996H357.726V90.3H361.614V91.452H352.326ZM353.226 96.348C353.208 94.224 354.828 92.748 357.042 92.748C359.274 92.748 360.876 94.224 360.894 96.348C360.876 98.454 359.274 99.93 357.042 99.912C354.828 99.93 353.208 98.454 353.226 96.348ZM354.558 96.348C354.54 97.77 355.602 98.76 357.042 98.76C358.5 98.76 359.562 97.77 359.562 96.348C359.562 94.926 358.5 93.9 357.042 93.9C355.602 93.9 354.54 94.926 354.558 96.348ZM381.347 87.816V103.44H380.051V87.816H381.347ZM367.991 99.048C371.393 97.032 373.103 94.224 373.355 90.948H368.675V89.796H374.723C374.723 91.344 374.471 92.838 373.949 94.224H376.739V88.212H378.071V102.648H376.739V95.34H373.445C372.491 97.158 370.979 98.76 368.783 100.056L367.991 99.048ZM397.335 94.548V95.7H393.915V98.76C395.445 98.706 396.993 98.598 398.451 98.436L398.559 99.48C395.085 99.966 391.305 100.038 388.299 100.02L388.119 98.868C389.469 98.868 390.981 98.85 392.547 98.814V95.7H389.307V89.292H397.299V90.408H390.675V94.548H397.335ZM399.459 103.44V87.816H400.863V103.44H399.459ZM416.528 87.816V96.96H415.16V93.9H412.028V92.784H415.16V90.84H412.028V89.688H415.16V87.816H416.528ZM403.604 95.52C405.98 94.62 407.546 92.478 407.564 90.012V88.392H408.896V90.012C408.896 92.262 410.462 94.404 412.748 95.268L411.956 96.348C410.264 95.664 408.914 94.278 408.248 92.568C407.6 94.44 406.214 95.898 404.396 96.636L403.604 95.52ZM404.468 102.18C406.448 101.478 407.636 99.786 407.636 98.256V97.536H408.968V98.256C408.968 99.66 409.706 101.136 411.2 102C412.694 101.064 413.468 99.48 413.468 98.256V97.536H414.8V98.256C414.818 99.894 415.988 101.514 418.04 102.18L417.284 103.224C415.754 102.666 414.656 101.568 414.134 100.254C413.648 101.532 412.694 102.738 411.236 103.368C409.724 102.774 408.752 101.622 408.284 100.308C407.726 101.568 406.646 102.648 405.152 103.224L404.468 102.18ZM433.777 94.044V95.196H431.257V103.404H429.853V87.816H431.257V94.044H433.777ZM419.809 99.444V89.328H421.177V98.292C423.445 98.292 425.785 98.112 428.341 97.572L428.521 98.76C425.839 99.282 423.409 99.444 421.033 99.444H419.809ZM449.009 100.272V101.424H434.717V100.272H438.245V96.042C436.913 95.358 436.103 94.224 436.121 92.82C436.103 90.39 438.479 88.806 441.809 88.788C445.157 88.806 447.533 90.39 447.533 92.82C447.533 94.206 446.741 95.322 445.445 96.006V100.272H449.009ZM437.453 92.82C437.435 94.548 439.253 95.718 441.809 95.736C444.365 95.718 446.201 94.548 446.201 92.82C446.201 91.056 444.365 89.904 441.809 89.904C439.253 89.904 437.435 91.056 437.453 92.82ZM439.613 100.272H444.077V96.546C443.393 96.726 442.637 96.816 441.809 96.816C441.017 96.816 440.279 96.726 439.613 96.564V100.272ZM452.758 98.328C452.776 95.97 453.496 95.25 454.702 94.512C455.44 94.062 455.998 93.378 455.998 92.388C455.998 91.182 455.062 90.426 453.91 90.444C452.902 90.426 451.894 91.02 451.786 92.46H450.202C450.274 90.336 451.894 89.094 453.91 89.112C456.106 89.094 457.528 90.516 457.546 92.46C457.528 93.828 456.88 94.782 455.782 95.448C454.702 96.132 454.306 96.798 454.27 98.328V98.4H452.758V98.328ZM452.434 100.956C452.434 100.344 452.956 99.84 453.586 99.84C454.198 99.84 454.702 100.344 454.702 100.956C454.702 101.586 454.198 102.108 453.586 102.108C452.956 102.108 452.434 101.586 452.434 100.956ZM7.87574 112.824C11.2057 112.842 13.5997 114.444 13.5997 116.928C13.5997 119.232 11.5297 120.762 8.55974 120.978V124.272H15.0757V125.424H0.783742V124.272H7.19174V120.978C4.25774 120.762 2.16974 119.232 2.18774 116.928C2.16974 114.444 4.58174 112.842 7.87574 112.824ZM3.51974 116.928C3.50174 118.71 5.35574 119.88 7.87574 119.88C10.4137 119.88 12.2677 118.71 12.2677 116.928C12.2677 115.146 10.4137 113.958 7.87574 113.976C5.35574 113.958 3.50174 115.146 3.51974 116.928ZM28.9404 115.56V116.712H18.2484V112.068H19.6164V115.56H28.9404ZM16.3044 119.376V118.26H30.5964V119.376H16.3044ZM18.1044 121.86V120.78H28.7604V124.416H19.5084V126.108H29.3364V127.224H18.1404V123.372H27.4284V121.86H18.1044ZM49.321 111.816V123.264H47.953V117.288H44.749V116.136H47.953V111.816H49.321ZM36.433 120.132C38.755 119.34 40.429 117.27 40.429 115.02V114.228H36.901V113.076H45.325V114.228H41.833V115.02C41.815 117.054 43.381 119.016 45.685 119.808L44.965 120.888C43.183 120.258 41.815 118.962 41.149 117.36C40.465 119.16 39.007 120.582 37.153 121.284L36.433 120.132ZM39.313 127.08V122.256H40.681V125.928H49.789V127.08H39.313ZM57.4977 115.992C57.4797 118.854 59.4237 121.716 61.7097 122.76L60.8817 123.876C59.0997 122.994 57.5517 121.14 56.8137 118.89C56.0937 121.266 54.5457 123.246 52.7097 124.164L51.8457 123.012C54.1857 121.95 56.1117 118.962 56.1297 115.992V113.148H57.4977V115.992ZM63.4377 127.44V111.816H64.8057V127.44H63.4377ZM80.9023 111.816V127.44H79.5703V111.816H80.9023ZM67.6903 118.548C67.6903 115.218 69.0043 113.13 71.0383 113.112C72.9283 113.13 74.2243 114.948 74.4043 117.9H76.4383V112.14H77.7343V126.648H76.4383V119.052H74.4043C74.2603 122.094 72.9643 123.984 71.0383 123.984C69.0043 123.984 67.6903 121.878 67.6903 118.548ZM68.9863 118.548C68.9683 121.086 69.7783 122.688 71.0383 122.652C72.3163 122.688 73.1263 121.086 73.1263 118.548C73.1263 116.01 72.3163 114.408 71.0383 114.408C69.7783 114.408 68.9683 116.01 68.9863 118.548ZM92.8949 115.056C92.8769 116.964 94.4609 118.674 96.7469 119.376L96.0989 120.456C94.2989 119.88 92.9129 118.71 92.2289 117.216C91.5449 118.872 90.1049 120.132 88.2509 120.744L87.5669 119.664C89.8709 118.944 91.5269 117.144 91.5269 115.056V114.768H87.9989V113.652H91.5269V111.744H92.8949V113.652H96.3869V114.768H92.8949V115.056ZM89.9069 127.224V121.788H99.7709V127.224H89.9069ZM91.2749 126.072H98.4029V122.868H91.2749V126.072ZM98.4029 121.068V111.816H99.7709V115.776H102.111V116.928H99.7709V121.068H98.4029ZM107.3 113.004C108.758 113.022 109.928 113.85 110.594 115.308H114.68V111.816H116.048V127.44H114.68V121.392H110.684C110.036 122.976 108.812 123.894 107.3 123.912C104.996 123.894 103.376 121.788 103.412 118.44C103.376 115.128 104.996 113.022 107.3 113.004ZM104.708 118.44C104.708 120.996 105.77 122.67 107.3 122.652C108.848 122.67 109.91 120.996 109.892 118.44C109.91 115.92 108.848 114.246 107.3 114.228C105.77 114.246 104.708 115.92 104.708 118.44ZM110.99 116.46C111.134 117.054 111.224 117.72 111.224 118.44C111.224 119.088 111.152 119.682 111.044 120.24H114.68V116.46H110.99ZM126.456 114.516V115.632H118.644V114.516H121.884V112.284H123.252V114.516H126.456ZM119.184 120.24C119.184 118.152 120.606 116.694 122.568 116.676C124.512 116.694 125.934 118.152 125.952 120.24C125.934 122.328 124.512 123.804 122.568 123.804C120.606 123.804 119.184 122.328 119.184 120.24ZM120.408 120.24C120.426 121.626 121.308 122.616 122.568 122.616C123.792 122.616 124.71 121.626 124.692 120.24C124.71 118.872 123.792 117.864 122.568 117.828C121.308 117.864 120.426 118.872 120.408 120.24ZM127.284 126.648V112.176H128.58V118.404H130.668V111.816H131.964V127.44H130.668V119.52H128.58V126.648H127.284ZM146.621 114.012C146.603 116.1 149.393 117.882 152.129 118.296L151.589 119.376C149.159 118.962 146.801 117.666 145.847 115.794C144.875 117.666 142.517 118.962 140.105 119.376L139.565 118.296C142.283 117.882 145.055 116.1 145.073 114.012V113.904H140.069V112.788H151.589V113.904H146.621V114.012ZM138.737 121.86V120.708H152.957V121.86H146.477V127.404H145.145V121.86H138.737ZM167.182 111.816V123.264H165.814V111.816H167.182ZM154.438 119.916C156.796 119.016 158.416 116.73 158.398 114.264V112.68H159.802V114.264C159.802 116.64 161.422 118.782 163.762 119.628L163.042 120.744C161.224 120.024 159.802 118.62 159.118 116.82C158.434 118.746 157.03 120.276 155.194 121.032L154.438 119.916ZM157.102 127.08V122.22H158.47V125.928H167.686V127.08H157.102ZM188.606 120.06V121.212H182.27V124.272H180.902V121.212H174.314V120.06H188.606ZM176.15 127.08V122.832H177.518V125.928H187.022V127.08H176.15ZM176.222 118.548V112.284H177.59V114.3H185.33V112.284H186.734V118.548H176.222ZM177.59 117.432H185.33V115.38H177.59V117.432ZM204.163 118.368V119.484H189.907V118.368H204.163ZM191.635 121.968V120.888H202.291V124.524H193.003V126.108H202.759V127.26H191.671V123.48H200.959V121.968H191.635ZM191.779 117.072V112.356H202.291V113.472H193.183V115.956H202.435V117.072H191.779ZM210.575 112.932C213.023 112.95 214.751 114.444 214.787 116.604C214.751 118.782 213.023 120.276 210.575 120.276C208.091 120.276 206.327 118.782 206.327 116.604C206.327 114.444 208.091 112.95 210.575 112.932ZM205.535 122.832C208.415 122.85 212.393 122.814 215.867 122.292L215.975 123.336C212.393 124.002 208.541 124.02 205.715 124.02L205.535 122.832ZM207.695 116.604C207.695 118.062 208.901 119.07 210.575 119.088C212.213 119.07 213.419 118.062 213.419 116.604C213.419 115.164 212.213 114.156 210.575 114.156C208.901 114.156 207.695 115.164 207.695 116.604ZM216.875 127.44V111.816H218.279V127.44H216.875ZM239.74 120.924V122.04H225.52V120.924H239.74ZM226.24 114.372V113.292H231.928V111.6H233.296V113.292H238.912V114.372H226.24ZM227.356 127.08V123.156H228.724V125.964H238.156V127.08H227.356ZM227.536 117.468C227.536 115.902 229.39 115.056 232.612 115.056C235.816 115.056 237.688 115.902 237.688 117.468C237.688 119.034 235.816 119.88 232.612 119.88C229.39 119.88 227.536 119.034 227.536 117.468ZM228.94 117.468C228.94 118.368 230.272 118.854 232.612 118.836C234.952 118.854 236.302 118.368 236.284 117.468C236.302 116.604 234.952 116.082 232.612 116.064C230.272 116.082 228.94 116.604 228.94 117.468ZM246.513 114.696C246.495 116.712 248.061 118.656 250.365 119.448L249.645 120.528C247.863 119.898 246.495 118.602 245.829 117C245.145 118.8 243.687 120.222 241.833 120.888L241.113 119.808C243.435 118.98 245.109 116.892 245.109 114.696V114.012H241.581V112.896H250.005V114.012H246.513V114.696ZM243.489 123.12V122.004H254.001V127.44H252.633V123.12H243.489ZM249.501 117.036V115.884H252.633V111.816H254.001V121.176H252.633V117.036H249.501ZM263.725 112.824C267.001 112.824 269.449 114.534 269.449 117.108C269.449 119.718 267.001 121.41 263.725 121.392C260.467 121.41 258.019 119.718 258.037 117.108C258.019 114.534 260.467 112.824 263.725 112.824ZM256.633 125.352V124.2H270.925V125.352H256.633ZM259.333 117.108C259.333 118.998 261.223 120.276 263.725 120.276C266.245 120.276 268.117 118.998 268.117 117.108C268.117 115.236 266.245 113.922 263.725 113.94C261.223 113.922 259.333 115.236 259.333 117.108ZM286.482 124.308V125.496H272.19V124.308H278.598V121.392H273.954V116.568H283.314V114.12H273.918V112.968H284.682V117.684H275.322V120.24H285.042V121.392H279.966V124.308H286.482ZM296.999 112.536C299.285 112.536 300.869 113.76 300.887 115.632C300.869 117.252 299.609 118.422 297.719 118.656V120.186C299.177 120.096 300.671 119.97 302.039 119.772L302.147 120.78C298.835 121.392 295.091 121.446 292.391 121.428L292.211 120.312C293.435 120.312 294.857 120.294 296.351 120.24V118.656C294.407 118.44 293.111 117.27 293.111 115.632C293.111 113.76 294.713 112.536 296.999 112.536ZM294.407 115.632C294.407 116.82 295.469 117.63 296.999 117.648C298.529 117.63 299.573 116.82 299.591 115.632C299.573 114.408 298.529 113.598 296.999 113.616C295.469 113.598 294.407 114.408 294.407 115.632ZM294.515 127.08V122.724H295.883V125.928H304.991V127.08H294.515ZM303.047 123.768V111.816H304.415V117.108H306.755V118.296H304.415V123.768H303.047ZM313.167 114.264C313.149 116.496 314.733 118.458 317.055 119.232L316.263 120.312C314.535 119.664 313.185 118.386 312.501 116.748C311.835 118.62 310.413 120.078 308.523 120.78L307.767 119.664C310.179 118.818 311.781 116.73 311.799 114.3V112.716H313.167V114.264ZM310.323 124.488C310.305 122.598 312.303 121.518 315.543 121.5C318.801 121.518 320.799 122.598 320.799 124.488C320.799 126.342 318.801 127.386 315.543 127.404C312.303 127.386 310.305 126.342 310.323 124.488ZM311.691 124.488C311.673 125.604 313.167 126.288 315.543 126.288C317.937 126.288 319.431 125.604 319.431 124.488C319.431 123.3 317.937 122.598 315.543 122.616C313.167 122.598 311.673 123.3 311.691 124.488ZM315.867 116.28V115.164H319.359V111.816H320.727V121.068H319.359V116.28H315.867ZM332.648 118.548V119.7H329.228V122.76C330.758 122.706 332.306 122.598 333.764 122.436L333.872 123.48C330.398 123.966 326.618 124.038 323.612 124.02L323.432 122.868C324.782 122.868 326.294 122.85 327.86 122.814V119.7H324.62V113.292H332.612V114.408H325.988V118.548H332.648ZM334.772 127.44V111.816H336.176V127.44H334.772ZM351.517 116.532V117.648H340.825V112.392H342.193V116.532H351.517ZM338.881 120.888V119.772H353.173V120.888H338.881ZM340.753 127.044V122.508H342.121V125.892H351.625V127.044H340.753ZM363.365 112.752C365.741 112.734 367.451 114.246 367.469 116.424C367.451 118.62 365.741 120.114 363.365 120.132C360.989 120.114 359.243 118.62 359.261 116.424C359.243 114.246 360.989 112.734 363.365 112.752ZM360.629 116.424C360.593 117.918 361.763 118.944 363.365 118.944C364.949 118.944 366.101 117.918 366.137 116.424C366.101 114.948 364.949 113.922 363.365 113.94C361.763 113.922 360.593 114.948 360.629 116.424ZM360.953 122.94V121.824H371.177V127.44H369.809V122.94H360.953ZM369.809 120.996V111.816H371.177V115.848H373.517V117H371.177V120.996H369.809ZM388.822 124.272V125.424H374.53V124.272H380.938V120.888H376.222V112.896H377.59V115.74H385.69V112.896H387.058V120.888H382.306V124.272H388.822ZM377.59 119.772H385.69V116.856H377.59V119.772ZM404.378 124.308V125.496H390.086V124.308H396.494V121.392H391.85V116.568H401.21V114.12H391.814V112.968H402.578V117.684H393.218V120.24H402.938V121.392H397.862V124.308H404.378ZM417.235 112.824C420.565 112.842 422.959 114.444 422.959 116.928C422.959 119.232 420.889 120.762 417.919 120.978V124.272H424.435V125.424H410.143V124.272H416.551V120.978C413.617 120.762 411.529 119.232 411.547 116.928C411.529 114.444 413.941 112.842 417.235 112.824ZM412.879 116.928C412.861 118.71 414.715 119.88 417.235 119.88C419.773 119.88 421.627 118.71 421.627 116.928C421.627 115.146 419.773 113.958 417.235 113.976C414.715 113.958 412.861 115.146 412.879 116.928ZM438.3 115.56V116.712H427.608V112.068H428.976V115.56H438.3ZM425.664 119.376V118.26H439.956V119.376H425.664ZM427.464 121.86V120.78H438.12V124.416H428.868V126.108H438.696V127.224H427.5V123.372H436.788V121.86H427.464ZM446.368 112.932C448.816 112.95 450.544 114.444 450.58 116.604C450.544 118.782 448.816 120.276 446.368 120.276C443.884 120.276 442.12 118.782 442.12 116.604C442.12 114.444 443.884 112.95 446.368 112.932ZM441.328 122.832C444.208 122.85 448.186 122.814 451.66 122.292L451.768 123.336C448.186 124.002 444.334 124.02 441.508 124.02L441.328 122.832ZM443.488 116.604C443.488 118.062 444.694 119.07 446.368 119.088C448.006 119.07 449.212 118.062 449.212 116.604C449.212 115.164 448.006 114.156 446.368 114.156C444.694 114.156 443.488 115.164 443.488 116.604ZM452.668 127.44V111.816H454.072V127.44H452.668ZM474.201 111.816V123.228H472.833V111.816H474.201ZM461.673 116.748C461.655 114.48 463.419 112.914 465.777 112.896C468.099 112.914 469.845 114.48 469.845 116.748C469.845 119.016 468.099 120.6 465.777 120.564C463.419 120.6 461.655 119.016 461.673 116.748ZM463.005 116.748C463.005 118.296 464.175 119.376 465.777 119.376C467.307 119.376 468.513 118.296 468.513 116.748C468.513 115.218 467.307 114.12 465.777 114.12C464.175 114.12 463.005 115.218 463.005 116.748ZM464.121 127.08V122.076H465.489V125.928H474.705V127.08H464.121ZM489.794 111.816V123.372H488.426V119.124H484.394C483.656 120.06 482.504 120.618 481.154 120.6C478.814 120.618 477.086 118.998 477.122 116.712C477.086 114.426 478.814 112.806 481.154 112.788C482.486 112.806 483.638 113.346 484.358 114.264H488.426V111.816H489.794ZM478.418 116.712C478.418 118.278 479.57 119.394 481.154 119.412C482.702 119.394 483.872 118.278 483.854 116.712C483.872 115.164 482.702 114.048 481.154 114.012C479.57 114.048 478.418 115.164 478.418 116.712ZM479.786 127.08V122.148H481.154V125.928H490.262V127.08H479.786ZM484.988 118.008H488.426V115.416H484.988C485.114 115.812 485.186 116.244 485.186 116.712C485.186 117.18 485.114 117.612 484.988 118.008ZM499.518 112.068C503.01 112.086 505.044 113.04 505.026 114.768C505.044 116.532 503.01 117.504 499.518 117.504C496.044 117.504 493.992 116.532 493.974 114.768C493.992 113.04 496.044 112.086 499.518 112.068ZM492.426 119.7V118.584H506.646V119.7H492.426ZM494.154 122.112V121.032H504.81V124.524H495.522V126.144H505.278V127.26H494.19V123.516H503.478V122.112H494.154ZM495.45 114.768C495.414 115.848 496.944 116.46 499.518 116.46C502.128 116.46 503.64 115.848 503.622 114.768C503.64 113.742 502.128 113.13 499.518 113.112C496.944 113.13 495.414 113.742 495.45 114.768ZM525.371 111.816V127.44H524.003V111.816H525.371ZM512.663 123.372C516.893 121.356 519.053 118.35 519.359 114.624H513.383V113.508H520.763C520.745 117.99 518.657 121.968 513.419 124.488L512.663 123.372ZM542.296 120.42V121.536H528.004V120.42H534.484V118.764H529.876V114.948H539.092V113.328H529.804V112.212H540.46V115.992H531.244V117.648H540.82V118.764H535.816V120.42H542.296ZM529.588 123.876V122.76H540.568V127.296H539.164V123.876H529.588ZM555.8 111.816V115.812H558.14V116.964H555.8V120.888H554.432V111.816H555.8ZM543.632 114.552V113.436H547.592V111.672H548.96V113.436H552.92V114.552H543.632ZM544.532 118.008C544.496 116.352 546.008 115.29 548.276 115.272C550.526 115.29 552.02 116.352 552.02 118.008C552.02 119.682 550.526 120.762 548.276 120.744C546.008 120.762 544.496 119.682 544.532 118.008ZM545.828 118.008C545.828 119.034 546.8 119.718 548.276 119.7C549.734 119.718 550.724 119.034 550.724 118.008C550.724 117.018 549.734 116.334 548.276 116.352C546.8 116.334 545.828 117.018 545.828 118.008ZM545.936 127.224V121.572H547.304V123.228H554.432V121.572H555.8V127.224H545.936ZM547.304 126.108H554.432V124.344H547.304V126.108ZM572.005 111.816V127.44H570.637V111.816H572.005ZM560.161 123.408V113.328H561.529V122.184C563.905 122.202 566.353 122.004 568.981 121.464L569.161 122.616C566.407 123.21 563.923 123.408 561.421 123.408H560.161ZM586.806 111.816V117.972H589.398V119.124H586.806V127.44H585.402V111.816H586.806ZM575.394 123.552V113.328H582.666V114.48H576.762V122.364C579.588 122.364 581.586 122.256 583.89 121.824L584.07 123.012C581.64 123.444 579.588 123.534 576.618 123.552H575.394ZM591.922 126.108C591.292 126.108 590.77 125.586 590.77 124.956C590.77 124.344 591.292 123.84 591.922 123.84C592.534 123.84 593.038 124.344 593.038 124.956C593.038 125.586 592.534 126.108 591.922 126.108Z" fill="black"/>
</svg>
