<svg width="594" height="136" viewBox="0 0 594 136" fill="none" xmlns="http://www.w3.org/2000/svg">
<path d="M146.01 6.04C156.162 6.094 163.506 11.116 163.506 18.676C163.506 25.696 157.35 30.394 148.494 31.096V40.384H167.826V44.596H124.518V40.384H143.526V31.096C134.832 30.394 128.622 25.696 128.622 18.676C128.622 11.116 136.02 6.094 146.01 6.04ZM133.482 18.676C133.482 23.914 138.774 27.208 146.01 27.208C153.354 27.208 158.646 23.914 158.646 18.676C158.646 13.492 153.354 10.144 146.01 10.144C138.774 10.144 133.482 13.492 133.482 18.676ZM209.312 13.924V18.028H176.912V3.88H181.772V13.924H209.312ZM171.188 26.236V22.24H214.388V26.236H171.188ZM176.372 33.904V30.016H208.988V41.572H181.556V45.892H210.608V49.888H176.48V37.9H204.02V33.904H176.372ZM233.302 6.58C240.754 6.58 246.1 11.224 246.154 17.812C246.1 24.508 240.754 29.098 233.302 29.152C225.85 29.098 220.396 24.508 220.45 17.812C220.396 11.224 225.85 6.58 233.302 6.58ZM218.074 36.172C226.714 36.226 238.648 36.172 248.962 34.66L249.394 38.332C238.648 40.33 227.2 40.384 218.722 40.384L218.074 36.172ZM225.31 17.812C225.31 22.024 228.658 24.778 233.302 24.724C237.838 24.778 241.24 22.024 241.294 17.812C241.24 13.708 237.838 10.954 233.302 10.9C228.658 10.954 225.31 13.708 225.31 17.812ZM251.986 50.536V3.232H256.954V50.536H251.986ZM287.377 17.92H318.535V21.592H287.377V17.92ZM300.931 9.334H304.765C304.225 25.156 302.713 35.848 289.159 41.302C288.727 40.384 287.593 38.926 286.729 38.17C299.419 33.364 300.499 23.806 300.931 9.334ZM305.089 19.972C306.925 28.882 311.137 35.092 319.075 37.846C318.211 38.548 317.077 40.114 316.537 41.14C308.113 37.738 303.793 30.826 301.741 20.512L305.089 19.972ZM280.411 3.178H325.663V50.32H321.505V7.066H284.461V50.32H280.411V3.178ZM282.787 44.002H323.179V47.89H282.787V44.002ZM350.179 17.812H381.067V21.16H350.179V17.812ZM358.495 4.096H374.047V7.12H358.495V4.096ZM356.443 11.602H373.237V14.572H356.443V11.602ZM357.793 0.639998L361.465 1.018C360.439 5.932 358.927 12.196 357.739 16.084L354.067 15.598C355.255 11.71 356.821 5.392 357.793 0.639998ZM373.075 4.096H373.507L374.101 3.934L376.801 4.366C376.099 8.956 374.911 14.95 373.831 19.594L370.267 19.162C371.347 14.518 372.535 7.984 373.075 4.582V4.096ZM340.567 0.693998L344.023 1.99C342.079 5.986 339.541 10.846 337.543 13.87L334.843 12.682C336.733 9.55 339.217 4.258 340.567 0.693998ZM346.291 6.85L349.639 8.362C346.075 14.356 341.107 22.024 337.219 26.668L334.789 25.372C338.623 20.566 343.483 12.52 346.291 6.85ZM331.927 11.872L334.087 9.28C336.949 11.926 340.243 15.598 341.647 18.028L339.379 20.998C338.029 18.406 334.789 14.572 331.927 11.872ZM344.239 19.054L347.101 17.974C349.153 21.538 351.151 26.29 351.691 29.314L348.667 30.61C348.073 27.586 346.237 22.726 344.239 19.054ZM331.495 24.562C335.977 24.346 342.403 24.022 348.883 23.644V27.1C342.781 27.478 336.625 27.856 331.927 28.18L331.495 24.562ZM345.265 32.176L348.127 31.366C349.423 34.39 350.503 38.332 350.773 40.924L347.695 41.842C347.479 39.25 346.453 35.254 345.265 32.176ZM334.735 31.528L338.083 32.122C337.381 37.198 336.085 42.436 334.411 45.892C333.763 45.406 332.197 44.704 331.387 44.38C333.115 41.086 334.141 36.226 334.735 31.528ZM340.189 26.128H343.699V50.32H340.189V26.128ZM365.137 18.784L368.269 19.864C364.921 24.13 358.927 27.802 353.635 30.07C353.203 29.368 352.123 27.964 351.367 27.316C356.605 25.426 362.167 22.348 365.137 18.784ZM359.467 25.696L362.275 24.13C372.103 31.798 371.833 45.514 367.621 48.862C366.325 50.05 365.083 50.374 363.139 50.428C362.113 50.428 360.925 50.374 359.629 50.32C359.575 49.402 359.359 47.944 358.765 46.864C360.223 47.08 361.357 47.134 362.383 47.134C363.517 47.134 364.435 47.026 365.191 46.162C367.891 43.732 367.945 32.446 359.467 25.696ZM369.997 19.54C371.941 29.854 376.045 39.304 382.471 43.624C381.607 44.326 380.365 45.676 379.771 46.702C373.075 41.572 368.971 31.582 366.811 20.188L369.997 19.54ZM378.907 23.698L381.553 26.56C378.745 28.936 375.505 31.528 372.967 33.202L370.969 30.88C373.399 29.098 376.909 25.912 378.907 23.698ZM363.571 28.126L366.109 29.8C363.193 32.77 357.685 36.334 353.365 38.278C352.879 37.414 351.961 36.118 351.205 35.416C355.363 34.012 360.871 30.88 363.571 28.126ZM366.055 34.066L368.701 35.848C364.813 40.654 357.307 45.73 351.043 48.322C350.503 47.404 349.531 46.162 348.721 45.46C355.039 43.354 362.491 38.602 366.055 34.066ZM399.663 49.552V28.384H405.135V30.4H402.063V47.536H405.135V49.552H399.663ZM423.961 26.992V42.256H421.753V26.992H423.961ZM406.969 33.616C406.969 30.592 409.393 28.432 412.585 28.432C415.729 28.432 418.153 30.592 418.153 33.616C418.153 36.712 415.729 38.848 412.585 38.848C409.393 38.848 406.969 36.712 406.969 33.616ZM409.129 33.616C409.129 35.608 410.617 36.904 412.585 36.928C414.481 36.904 415.969 35.608 415.945 33.616C415.969 31.696 414.481 30.376 412.585 30.352C410.617 30.376 409.129 31.696 409.129 33.616ZM410.233 47.536V40.72H412.441V45.76H424.585V47.536H410.233ZM429.679 46.144C428.767 46.168 427.999 45.424 427.999 44.512C427.999 43.576 428.767 42.832 429.679 42.832C430.567 42.832 431.335 43.576 431.311 44.512C431.335 45.424 430.567 46.168 429.679 46.144ZM427.999 35.248C427.999 34.312 428.767 33.568 429.679 33.568C430.567 33.568 431.335 34.312 431.311 35.248C431.335 36.16 430.567 36.904 429.679 36.88C428.767 36.904 427.999 36.16 427.999 35.248ZM451.127 26.992V42.496H448.919V37.024H443.663C442.679 38.2 441.167 38.92 439.415 38.944C436.271 38.92 433.919 36.712 433.943 33.616C433.919 30.52 436.271 28.312 439.415 28.288C441.143 28.312 442.631 29.008 443.639 30.16H448.919V26.992H451.127ZM436.055 33.616C436.031 35.608 437.447 36.952 439.415 36.976C441.311 36.952 442.751 35.608 442.775 33.616C442.751 31.648 441.311 30.28 439.415 30.256C437.447 30.28 436.031 31.648 436.055 33.616ZM437.495 47.536V40.864H439.703V45.76H451.655V47.536H437.495ZM444.647 31.984C444.791 32.488 444.887 33.04 444.887 33.616C444.887 34.168 444.791 34.696 444.647 35.2H448.919V31.984H444.647ZM459.629 28.384V49.552H454.157V47.536H457.229V30.4H454.157V28.384H459.629ZM123.117 71.816V83.264H121.749V77.288H118.545V76.136H121.749V71.816H123.117ZM110.229 80.132C112.551 79.34 114.225 77.27 114.225 75.02V74.228H110.697V73.076H119.121V74.228H115.629V75.02C115.611 77.054 117.177 79.016 119.481 79.808L118.761 80.888C116.979 80.258 115.611 78.962 114.945 77.36C114.261 79.16 112.803 80.582 110.949 81.284L110.229 80.132ZM113.109 87.08V82.256H114.477V85.928H123.585V87.08H113.109ZM131.294 75.992C131.276 78.854 133.22 81.716 135.506 82.76L134.678 83.876C132.896 82.994 131.348 81.14 130.61 78.89C129.89 81.266 128.342 83.246 126.506 84.164L125.642 83.012C127.982 81.95 129.908 78.962 129.926 75.992V73.148H131.294V75.992ZM137.234 87.44V71.816H138.602V87.44H137.234ZM154.698 71.816V87.44H153.366V71.816H154.698ZM141.486 78.548C141.486 75.218 142.8 73.13 144.834 73.112C146.724 73.13 148.02 74.948 148.2 77.9H150.234V72.14H151.53V86.648H150.234V79.052H148.2C148.056 82.094 146.76 83.984 144.834 83.984C142.8 83.984 141.486 81.878 141.486 78.548ZM142.782 78.548C142.764 81.086 143.574 82.688 144.834 82.652C146.112 82.688 146.922 81.086 146.922 78.548C146.922 76.01 146.112 74.408 144.834 74.408C143.574 74.408 142.764 76.01 142.782 78.548ZM173.567 71.816V75.956H175.907V77.144H173.567V81.212H172.199V71.816H173.567ZM161.399 74.588V73.472H165.359V71.672H166.727V73.472H170.687V74.588H161.399ZM162.299 78.152C162.263 76.496 163.775 75.38 166.043 75.38C168.293 75.38 169.787 76.496 169.787 78.152C169.787 79.862 168.293 80.96 166.043 80.96C163.775 80.96 162.263 79.862 162.299 78.152ZM163.595 78.152C163.595 79.232 164.567 79.88 166.043 79.88C167.501 79.88 168.491 79.232 168.491 78.152C168.491 77.144 167.501 76.46 166.043 76.46C164.567 76.46 163.595 77.144 163.595 78.152ZM163.703 87.224V82.112H173.567V87.224H163.703ZM165.071 86.072H172.199V83.228H165.071V86.072ZM180.771 73.688C180.771 76.982 180.303 80.672 178.035 83.696L176.955 83.084C178.899 80.618 179.457 77.72 179.583 74.84H177.243V73.688H180.771ZM180.447 84.092C182.607 81.338 182.985 77.756 183.057 74.84H181.275V73.688H184.263C184.263 74.966 184.227 76.424 184.029 77.936H186.099V72.212H187.431V86.648H186.099V79.088H183.849C183.489 81.05 182.805 83.03 181.527 84.74L180.447 84.092ZM189.015 87.44V71.816H190.347V87.44H189.015ZM204.176 81.608C207.38 81.626 209.324 82.688 209.324 84.524C209.324 86.342 207.38 87.404 204.176 87.404C200.954 87.404 198.992 86.342 198.992 84.524C198.992 82.688 200.954 81.626 204.176 81.608ZM197.624 79.988V72.788H198.992V75.164H203.528V72.788H204.896V79.988H197.624ZM198.992 78.872H203.528V76.28H198.992V78.872ZM200.36 84.524C200.36 85.622 201.818 86.306 204.176 86.288C206.534 86.306 207.974 85.622 207.992 84.524C207.974 83.39 206.534 82.724 204.176 82.724C201.818 82.724 200.36 83.39 200.36 84.524ZM207.812 81.212V71.816H209.18V75.74H211.52V76.928H209.18V81.212H207.812ZM226.789 79.808V80.924H220.453V84.128H219.085V80.924H212.497V79.808H226.789ZM214.333 87.08V82.58H215.701V85.928H225.205V87.08H214.333ZM214.369 78.008V72.572H224.953V78.008H214.369ZM215.701 76.892H223.585V73.652H215.701V76.892ZM240.293 71.816V76.964H242.633V78.116H240.293V83.516H238.925V71.816H240.293ZM228.125 74.876V73.724H232.085V71.816H233.453V73.724H237.413V74.876H228.125ZM229.025 78.656C228.989 76.856 230.519 75.722 232.769 75.704C235.001 75.722 236.513 76.856 236.513 78.656C236.513 80.402 235.001 81.518 232.769 81.536C230.519 81.518 228.989 80.402 229.025 78.656ZM230.321 78.656C230.321 79.736 231.293 80.438 232.769 80.42C234.227 80.438 235.217 79.736 235.217 78.656C235.217 77.522 234.227 76.802 232.769 76.784C231.293 76.802 230.321 77.522 230.321 78.656ZM230.501 87.08V82.58H231.869V85.928H241.013V87.08H230.501ZM260.35 71.816V75.884H262.69V77.036H260.35V81.14H258.982V71.816H260.35ZM248.866 79.844V73.004H255.778V74.156H250.198V78.728C253.366 78.71 255.184 78.62 257.29 78.188L257.434 79.34C255.238 79.754 253.366 79.844 250.054 79.844H248.866ZM250.162 84.416C250.162 82.526 252.142 81.446 255.346 81.428C258.532 81.446 260.494 82.526 260.494 84.416C260.494 86.306 258.532 87.386 255.346 87.404C252.142 87.386 250.162 86.306 250.162 84.416ZM251.53 84.416C251.512 85.568 252.988 86.27 255.346 86.288C257.686 86.27 259.162 85.568 259.162 84.416C259.162 83.246 257.686 82.562 255.346 82.58C252.988 82.562 251.512 83.246 251.53 84.416ZM276.591 71.816V83.264H275.223V71.816H276.591ZM263.847 79.916C266.205 79.016 267.825 76.73 267.807 74.264V72.68H269.211V74.264C269.211 76.64 270.831 78.782 273.171 79.628L272.451 80.744C270.633 80.024 269.211 78.62 268.527 76.82C267.843 78.746 266.439 80.276 264.603 81.032L263.847 79.916ZM266.511 87.08V82.22H267.879V85.928H277.095V87.08H266.511ZM284.371 72.932C286.819 72.95 288.547 74.444 288.583 76.604C288.547 78.782 286.819 80.276 284.371 80.276C281.887 80.276 280.123 78.782 280.123 76.604C280.123 74.444 281.887 72.95 284.371 72.932ZM279.331 82.832C282.211 82.85 286.189 82.814 289.663 82.292L289.771 83.336C286.189 84.002 282.337 84.02 279.511 84.02L279.331 82.832ZM281.491 76.604C281.491 78.062 282.697 79.07 284.371 79.088C286.009 79.07 287.215 78.062 287.215 76.604C287.215 75.164 286.009 74.156 284.371 74.156C282.697 74.156 281.491 75.164 281.491 76.604ZM290.671 87.44V71.816H292.075V87.44H290.671ZM312.204 71.816V83.228H310.836V71.816H312.204ZM299.676 76.748C299.658 74.48 301.422 72.914 303.78 72.896C306.102 72.914 307.848 74.48 307.848 76.748C307.848 79.016 306.102 80.6 303.78 80.564C301.422 80.6 299.658 79.016 299.676 76.748ZM301.008 76.748C301.008 78.296 302.178 79.376 303.78 79.376C305.31 79.376 306.516 78.296 306.516 76.748C306.516 75.218 305.31 74.12 303.78 74.12C302.178 74.12 301.008 75.218 301.008 76.748ZM302.124 87.08V82.076H303.492V85.928H312.708V87.08H302.124ZM327.797 71.816V83.372H326.429V79.124H322.397C321.659 80.06 320.507 80.618 319.157 80.6C316.817 80.618 315.089 78.998 315.125 76.712C315.089 74.426 316.817 72.806 319.157 72.788C320.489 72.806 321.641 73.346 322.361 74.264H326.429V71.816H327.797ZM316.421 76.712C316.421 78.278 317.573 79.394 319.157 79.412C320.705 79.394 321.875 78.278 321.857 76.712C321.875 75.164 320.705 74.048 319.157 74.012C317.573 74.048 316.421 75.164 316.421 76.712ZM317.789 87.08V82.148H319.157V85.928H328.265V87.08H317.789ZM322.991 78.008H326.429V75.416H322.991C323.117 75.812 323.189 76.244 323.189 76.712C323.189 77.18 323.117 77.612 322.991 78.008ZM337.521 72.068C341.013 72.086 343.047 73.04 343.029 74.768C343.047 76.532 341.013 77.504 337.521 77.504C334.047 77.504 331.995 76.532 331.977 74.768C331.995 73.04 334.047 72.086 337.521 72.068ZM330.429 79.7V78.584H344.649V79.7H330.429ZM332.157 82.112V81.032H342.813V84.524H333.525V86.144H343.281V87.26H332.193V83.516H341.481V82.112H332.157ZM333.453 74.768C333.417 75.848 334.947 76.46 337.521 76.46C340.131 76.46 341.643 75.848 341.625 74.768C341.643 73.742 340.131 73.13 337.521 73.112C334.947 73.13 333.417 73.742 333.453 74.768ZM354.878 72.752C357.254 72.734 358.964 74.246 358.982 76.424C358.964 78.62 357.254 80.114 354.878 80.132C352.502 80.114 350.756 78.62 350.774 76.424C350.756 74.246 352.502 72.734 354.878 72.752ZM352.142 76.424C352.106 77.918 353.276 78.944 354.878 78.944C356.462 78.944 357.614 77.918 357.65 76.424C357.614 74.948 356.462 73.922 354.878 73.94C353.276 73.922 352.106 74.948 352.142 76.424ZM352.466 82.94V81.824H362.69V87.44H361.322V82.94H352.466ZM361.322 80.996V71.816H362.69V75.848H365.03V77H362.69V80.996H361.322ZM380.335 84.272V85.424H366.043V84.272H372.451V80.888H367.735V72.896H369.103V75.74H377.203V72.896H378.571V80.888H373.819V84.272H380.335ZM369.103 79.772H377.203V76.856H369.103V79.772ZM394.991 71.816V87.44H393.659V71.816H394.991ZM381.779 78.548C381.779 75.218 383.093 73.13 385.127 73.112C387.017 73.13 388.313 74.948 388.493 77.9H390.527V72.14H391.823V86.648H390.527V79.052H388.493C388.349 82.094 387.053 83.984 385.127 83.984C383.093 83.984 381.779 81.878 381.779 78.548ZM383.075 78.548C383.057 81.086 383.867 82.688 385.127 82.652C386.405 82.688 387.215 81.086 387.215 78.548C387.215 76.01 386.405 74.408 385.127 74.408C383.867 74.408 383.057 76.01 383.075 78.548ZM413.86 71.816V75.38H416.236V76.568H413.86V80.636H412.492V71.816H413.86ZM402.412 79.448V72.608H403.78V78.296C406.012 78.278 408.316 78.08 410.836 77.576L411.016 78.728C408.352 79.268 405.994 79.43 403.636 79.448H402.412ZM403.96 87.188V81.5H413.86V87.188H403.96ZM405.292 86.072H412.528V82.58H405.292V86.072ZM425.132 73.508C425.132 74.39 425.042 75.254 424.88 76.1H428.768V71.78H430.136V87.404H428.768V81.428H424.376V80.276H428.768V77.216H424.592C423.692 80.114 421.622 82.67 417.932 84.488L417.212 83.336C421.37 81.32 423.458 78.314 423.728 74.624H417.896V73.508H425.132ZM440.653 74.012C440.635 76.1 443.425 77.882 446.161 78.296L445.621 79.376C443.191 78.962 440.833 77.666 439.879 75.794C438.907 77.666 436.549 78.962 434.137 79.376L433.597 78.296C436.315 77.882 439.087 76.1 439.105 74.012V73.904H434.101V72.788H445.621V73.904H440.653V74.012ZM432.769 81.86V80.708H446.989V81.86H440.509V87.404H439.177V81.86H432.769ZM452.934 76.244C452.952 78.728 454.158 81.41 456.246 82.652L455.454 83.696C453.942 82.796 452.862 81.14 452.304 79.25C451.728 81.32 450.576 83.102 449.01 84.056L448.146 83.012C450.306 81.752 451.62 78.98 451.602 76.316V73.256H452.934V76.244ZM454.518 78.584V77.396H457.146V72.14H458.478V86.648H457.146V78.584H454.518ZM460.386 87.44V71.816H461.718V87.44H460.386ZM478.174 84.272V85.424H463.882V84.272H467.41V80.042C466.078 79.358 465.268 78.224 465.286 76.82C465.268 74.39 467.644 72.806 470.974 72.788C474.322 72.806 476.698 74.39 476.698 76.82C476.698 78.206 475.906 79.322 474.61 80.006V84.272H478.174ZM466.618 76.82C466.6 78.548 468.418 79.718 470.974 79.736C473.53 79.718 475.366 78.548 475.366 76.82C475.366 75.056 473.53 73.904 470.974 73.904C468.418 73.904 466.6 75.056 466.618 76.82ZM468.778 84.272H473.242V80.546C472.558 80.726 471.802 80.816 470.974 80.816C470.182 80.816 469.444 80.726 468.778 80.564V84.272ZM481.959 73.256L481.851 82.4H480.375L480.231 73.256H481.959ZM479.979 84.956C479.979 84.344 480.501 83.84 481.131 83.84C481.743 83.84 482.247 84.344 482.247 84.956C482.247 85.586 481.743 86.108 481.131 86.108C480.501 86.108 479.979 85.586 479.979 84.956ZM136.374 97.004C138.516 97.022 140.046 98.84 140.262 101.756H143.754V95.816H145.122V111.44H143.754V102.908H140.28C140.118 105.986 138.57 107.894 136.374 107.912C134.07 107.894 132.45 105.788 132.486 102.44C132.45 99.128 134.07 97.022 136.374 97.004ZM133.782 102.44C133.782 104.996 134.844 106.67 136.374 106.652C137.922 106.67 138.984 104.996 138.966 102.44C138.984 99.92 137.922 98.246 136.374 98.228C134.844 98.246 133.782 99.92 133.782 102.44ZM152.074 97.4V98.516H149.59V106.238C150.364 106.22 151.21 106.148 152.182 105.932L152.326 107.084C150.994 107.39 149.878 107.408 148.87 107.408H148.222V97.4H152.074ZM152.974 107.408V97.4H157.222V98.516H154.342V106.256C155.602 106.22 156.682 106.166 157.87 105.86L158.014 107.012C156.574 107.372 155.368 107.408 153.766 107.408H152.974ZM156.466 102.692V101.54H159.49V95.816H160.858V111.44H159.49V102.692H156.466ZM175.515 95.816V100.964H177.855V102.116H175.515V107.516H174.147V95.816H175.515ZM163.347 98.876V97.724H167.307V95.816H168.675V97.724H172.635V98.876H163.347ZM164.247 102.656C164.211 100.856 165.741 99.722 167.991 99.704C170.223 99.722 171.735 100.856 171.735 102.656C171.735 104.402 170.223 105.518 167.991 105.536C165.741 105.518 164.211 104.402 164.247 102.656ZM165.543 102.656C165.543 103.736 166.515 104.438 167.991 104.42C169.449 104.438 170.439 103.736 170.439 102.656C170.439 101.522 169.449 100.802 167.991 100.784C166.515 100.802 165.543 101.522 165.543 102.656ZM165.723 111.08V106.58H167.091V109.928H176.235V111.08H165.723ZM196.256 95.816V107.228H194.888V95.816H196.256ZM183.728 100.748C183.71 98.48 185.474 96.914 187.832 96.896C190.154 96.914 191.9 98.48 191.9 100.748C191.9 103.016 190.154 104.6 187.832 104.564C185.474 104.6 183.71 103.016 183.728 100.748ZM185.06 100.748C185.06 102.296 186.23 103.376 187.832 103.376C189.362 103.376 190.568 102.296 190.568 100.748C190.568 99.218 189.362 98.12 187.832 98.12C186.23 98.12 185.06 99.218 185.06 100.748ZM186.176 111.08V106.076H187.544V109.928H196.76V111.08H186.176ZM211.848 95.816V107.372H210.48V103.124H206.448C205.71 104.06 204.558 104.618 203.208 104.6C200.868 104.618 199.14 102.998 199.176 100.712C199.14 98.426 200.868 96.806 203.208 96.788C204.54 96.806 205.692 97.346 206.412 98.264H210.48V95.816H211.848ZM200.472 100.712C200.472 102.278 201.624 103.394 203.208 103.412C204.756 103.394 205.926 102.278 205.908 100.712C205.926 99.164 204.756 98.048 203.208 98.012C201.624 98.048 200.472 99.164 200.472 100.712ZM201.84 111.08V106.148H203.208V109.928H212.316V111.08H201.84ZM207.042 102.008H210.48V99.416H207.042C207.168 99.812 207.24 100.244 207.24 100.712C207.24 101.18 207.168 101.612 207.042 102.008ZM221.573 96.824C224.849 96.824 227.297 98.534 227.297 101.108C227.297 103.718 224.849 105.41 221.573 105.392C218.315 105.41 215.867 103.718 215.885 101.108C215.867 98.534 218.315 96.824 221.573 96.824ZM214.481 109.352V108.2H228.773V109.352H214.481ZM217.181 101.108C217.181 102.998 219.071 104.276 221.573 104.276C224.093 104.276 225.965 102.998 225.965 101.108C225.965 99.236 224.093 97.922 221.573 97.94C219.071 97.922 217.181 99.236 217.181 101.108ZM244.33 108.308V109.496H230.038V108.308H236.446V105.392H231.802V100.568H241.162V98.12H231.766V96.968H242.53V101.684H233.17V104.24H242.89V105.392H237.814V108.308H244.33ZM262.946 95.816V111.44H261.578V95.816H262.946ZM250.67 102.44C250.67 99.128 252.326 97.022 254.666 97.004C256.97 97.022 258.644 99.128 258.662 102.44C258.644 105.788 256.97 107.894 254.666 107.912C252.326 107.894 250.67 105.788 250.67 102.44ZM252.002 102.44C252.002 104.996 253.082 106.67 254.666 106.652C256.214 106.67 257.294 104.996 257.294 102.44C257.294 99.92 256.214 98.246 254.666 98.228C253.082 98.246 252.002 99.92 252.002 102.44ZM283.075 95.816V107.264H281.707V101.288H278.503V100.136H281.707V95.816H283.075ZM270.187 104.132C272.509 103.34 274.183 101.27 274.183 99.02V98.228H270.655V97.076H279.079V98.228H275.587V99.02C275.569 101.054 277.135 103.016 279.439 103.808L278.719 104.888C276.937 104.258 275.569 102.962 274.903 101.36C274.219 103.16 272.761 104.582 270.907 105.284L270.187 104.132ZM273.067 111.08V106.256H274.435V109.928H283.543V111.08H273.067ZM291.252 99.992C291.234 102.854 293.178 105.716 295.464 106.76L294.636 107.876C292.854 106.994 291.306 105.14 290.568 102.89C289.848 105.266 288.3 107.246 286.464 108.164L285.6 107.012C287.94 105.95 289.866 102.962 289.884 99.992V97.148H291.252V99.992ZM297.192 111.44V95.816H298.56V111.44H297.192ZM315.52 103.052V104.132H301.228V103.052H315.52ZM302.956 106.436V105.392H313.756V108.704H304.36V110.216H314.26V111.224H302.992V107.768H312.388V106.436H302.956ZM303.028 97.256V96.284H313.684V99.524H304.468V100.892H313.972V101.9H303.1V98.552H312.316V97.256H303.028ZM328.521 105.608C331.725 105.626 333.669 106.688 333.669 108.524C333.669 110.342 331.725 111.404 328.521 111.404C325.299 111.404 323.337 110.342 323.337 108.524C323.337 106.688 325.299 105.626 328.521 105.608ZM321.969 103.988V96.788H323.337V99.164H327.873V96.788H329.241V103.988H321.969ZM323.337 102.872H327.873V100.28H323.337V102.872ZM324.705 108.524C324.705 109.622 326.163 110.306 328.521 110.288C330.879 110.306 332.319 109.622 332.337 108.524C332.319 107.39 330.879 106.724 328.521 106.724C326.163 106.724 324.705 107.39 324.705 108.524ZM332.157 105.212V95.816H333.525V99.74H335.865V100.928H333.525V105.212H332.157ZM351.133 103.808V104.924H344.797V108.128H343.429V104.924H336.841V103.808H351.133ZM338.677 111.08V106.58H340.045V109.928H349.549V111.08H338.677ZM338.713 102.008V96.572H349.297V102.008H338.713ZM340.045 100.892H347.929V97.652H340.045V100.892ZM364.53 95.816V102.26H367.122V103.412H364.53V111.44H363.162V95.816H364.53ZM352.326 99.452V98.3H356.358V95.996H357.726V98.3H361.614V99.452H352.326ZM353.226 104.348C353.208 102.224 354.828 100.748 357.042 100.748C359.274 100.748 360.876 102.224 360.894 104.348C360.876 106.454 359.274 107.93 357.042 107.912C354.828 107.93 353.208 106.454 353.226 104.348ZM354.558 104.348C354.54 105.77 355.602 106.76 357.042 106.76C358.5 106.76 359.562 105.77 359.562 104.348C359.562 102.926 358.5 101.9 357.042 101.9C355.602 101.9 354.54 102.926 354.558 104.348ZM381.347 95.816V111.44H380.051V95.816H381.347ZM367.991 107.048C371.393 105.032 373.103 102.224 373.355 98.948H368.675V97.796H374.723C374.723 99.344 374.471 100.838 373.949 102.224H376.739V96.212H378.071V110.648H376.739V103.34H373.445C372.491 105.158 370.979 106.76 368.783 108.056L367.991 107.048ZM397.335 102.548V103.7H393.915V106.76C395.445 106.706 396.993 106.598 398.451 106.436L398.559 107.48C395.085 107.966 391.305 108.038 388.299 108.02L388.119 106.868C389.469 106.868 390.981 106.85 392.547 106.814V103.7H389.307V97.292H397.299V98.408H390.675V102.548H397.335ZM399.459 111.44V95.816H400.863V111.44H399.459ZM416.528 95.816V104.96H415.16V101.9H412.028V100.784H415.16V98.84H412.028V97.688H415.16V95.816H416.528ZM403.604 103.52C405.98 102.62 407.546 100.478 407.564 98.012V96.392H408.896V98.012C408.896 100.262 410.462 102.404 412.748 103.268L411.956 104.348C410.264 103.664 408.914 102.278 408.248 100.568C407.6 102.44 406.214 103.898 404.396 104.636L403.604 103.52ZM404.468 110.18C406.448 109.478 407.636 107.786 407.636 106.256V105.536H408.968V106.256C408.968 107.66 409.706 109.136 411.2 110C412.694 109.064 413.468 107.48 413.468 106.256V105.536H414.8V106.256C414.818 107.894 415.988 109.514 418.04 110.18L417.284 111.224C415.754 110.666 414.656 109.568 414.134 108.254C413.648 109.532 412.694 110.738 411.236 111.368C409.724 110.774 408.752 109.622 408.284 108.308C407.726 109.568 406.646 110.648 405.152 111.224L404.468 110.18ZM433.777 102.044V103.196H431.257V111.404H429.853V95.816H431.257V102.044H433.777ZM419.809 107.444V97.328H421.177V106.292C423.445 106.292 425.785 106.112 428.341 105.572L428.521 106.76C425.839 107.282 423.409 107.444 421.033 107.444H419.809ZM449.009 108.272V109.424H434.717V108.272H438.245V104.042C436.913 103.358 436.103 102.224 436.121 100.82C436.103 98.39 438.479 96.806 441.809 96.788C445.157 96.806 447.533 98.39 447.533 100.82C447.533 102.206 446.741 103.322 445.445 104.006V108.272H449.009ZM437.453 100.82C437.435 102.548 439.253 103.718 441.809 103.736C444.365 103.718 446.201 102.548 446.201 100.82C446.201 99.056 444.365 97.904 441.809 97.904C439.253 97.904 437.435 99.056 437.453 100.82ZM439.613 108.272H444.077V104.546C443.393 104.726 442.637 104.816 441.809 104.816C441.017 104.816 440.279 104.726 439.613 104.564V108.272ZM452.758 106.328C452.776 103.97 453.496 103.25 454.702 102.512C455.44 102.062 455.998 101.378 455.998 100.388C455.998 99.182 455.062 98.426 453.91 98.444C452.902 98.426 451.894 99.02 451.786 100.46H450.202C450.274 98.336 451.894 97.094 453.91 97.112C456.106 97.094 457.528 98.516 457.546 100.46C457.528 101.828 456.88 102.782 455.782 103.448C454.702 104.132 454.306 104.798 454.27 106.328V106.4H452.758V106.328ZM452.434 108.956C452.434 108.344 452.956 107.84 453.586 107.84C454.198 107.84 454.702 108.344 454.702 108.956C454.702 109.586 454.198 110.108 453.586 110.108C452.956 110.108 452.434 109.586 452.434 108.956ZM7.87574 120.824C11.2057 120.842 13.5997 122.444 13.5997 124.928C13.5997 127.232 11.5297 128.762 8.55974 128.978V132.272H15.0757V133.424H0.783742V132.272H7.19174V128.978C4.25774 128.762 2.16974 127.232 2.18774 124.928C2.16974 122.444 4.58174 120.842 7.87574 120.824ZM3.51974 124.928C3.50174 126.71 5.35574 127.88 7.87574 127.88C10.4137 127.88 12.2677 126.71 12.2677 124.928C12.2677 123.146 10.4137 121.958 7.87574 121.976C5.35574 121.958 3.50174 123.146 3.51974 124.928ZM28.9404 123.56V124.712H18.2484V120.068H19.6164V123.56H28.9404ZM16.3044 127.376V126.26H30.5964V127.376H16.3044ZM18.1044 129.86V128.78H28.7604V132.416H19.5084V134.108H29.3364V135.224H18.1404V131.372H27.4284V129.86H18.1044ZM49.321 119.816V131.264H47.953V125.288H44.749V124.136H47.953V119.816H49.321ZM36.433 128.132C38.755 127.34 40.429 125.27 40.429 123.02V122.228H36.901V121.076H45.325V122.228H41.833V123.02C41.815 125.054 43.381 127.016 45.685 127.808L44.965 128.888C43.183 128.258 41.815 126.962 41.149 125.36C40.465 127.16 39.007 128.582 37.153 129.284L36.433 128.132ZM39.313 135.08V130.256H40.681V133.928H49.789V135.08H39.313ZM57.4977 123.992C57.4797 126.854 59.4237 129.716 61.7097 130.76L60.8817 131.876C59.0997 130.994 57.5517 129.14 56.8137 126.89C56.0937 129.266 54.5457 131.246 52.7097 132.164L51.8457 131.012C54.1857 129.95 56.1117 126.962 56.1297 123.992V121.148H57.4977V123.992ZM63.4377 135.44V119.816H64.8057V135.44H63.4377ZM80.9023 119.816V135.44H79.5703V119.816H80.9023ZM67.6903 126.548C67.6903 123.218 69.0043 121.13 71.0383 121.112C72.9283 121.13 74.2243 122.948 74.4043 125.9H76.4383V120.14H77.7343V134.648H76.4383V127.052H74.4043C74.2603 130.094 72.9643 131.984 71.0383 131.984C69.0043 131.984 67.6903 129.878 67.6903 126.548ZM68.9863 126.548C68.9683 129.086 69.7783 130.688 71.0383 130.652C72.3163 130.688 73.1263 129.086 73.1263 126.548C73.1263 124.01 72.3163 122.408 71.0383 122.408C69.7783 122.408 68.9683 124.01 68.9863 126.548ZM92.8949 123.056C92.8769 124.964 94.4609 126.674 96.7469 127.376L96.0989 128.456C94.2989 127.88 92.9129 126.71 92.2289 125.216C91.5449 126.872 90.1049 128.132 88.2509 128.744L87.5669 127.664C89.8709 126.944 91.5269 125.144 91.5269 123.056V122.768H87.9989V121.652H91.5269V119.744H92.8949V121.652H96.3869V122.768H92.8949V123.056ZM89.9069 135.224V129.788H99.7709V135.224H89.9069ZM91.2749 134.072H98.4029V130.868H91.2749V134.072ZM98.4029 129.068V119.816H99.7709V123.776H102.111V124.928H99.7709V129.068H98.4029ZM107.3 121.004C108.758 121.022 109.928 121.85 110.594 123.308H114.68V119.816H116.048V135.44H114.68V129.392H110.684C110.036 130.976 108.812 131.894 107.3 131.912C104.996 131.894 103.376 129.788 103.412 126.44C103.376 123.128 104.996 121.022 107.3 121.004ZM104.708 126.44C104.708 128.996 105.77 130.67 107.3 130.652C108.848 130.67 109.91 128.996 109.892 126.44C109.91 123.92 108.848 122.246 107.3 122.228C105.77 122.246 104.708 123.92 104.708 126.44ZM110.99 124.46C111.134 125.054 111.224 125.72 111.224 126.44C111.224 127.088 111.152 127.682 111.044 128.24H114.68V124.46H110.99ZM126.456 122.516V123.632H118.644V122.516H121.884V120.284H123.252V122.516H126.456ZM119.184 128.24C119.184 126.152 120.606 124.694 122.568 124.676C124.512 124.694 125.934 126.152 125.952 128.24C125.934 130.328 124.512 131.804 122.568 131.804C120.606 131.804 119.184 130.328 119.184 128.24ZM120.408 128.24C120.426 129.626 121.308 130.616 122.568 130.616C123.792 130.616 124.71 129.626 124.692 128.24C124.71 126.872 123.792 125.864 122.568 125.828C121.308 125.864 120.426 126.872 120.408 128.24ZM127.284 134.648V120.176H128.58V126.404H130.668V119.816H131.964V135.44H130.668V127.52H128.58V134.648H127.284ZM146.621 122.012C146.603 124.1 149.393 125.882 152.129 126.296L151.589 127.376C149.159 126.962 146.801 125.666 145.847 123.794C144.875 125.666 142.517 126.962 140.105 127.376L139.565 126.296C142.283 125.882 145.055 124.1 145.073 122.012V121.904H140.069V120.788H151.589V121.904H146.621V122.012ZM138.737 129.86V128.708H152.957V129.86H146.477V135.404H145.145V129.86H138.737ZM167.182 119.816V131.264H165.814V119.816H167.182ZM154.438 127.916C156.796 127.016 158.416 124.73 158.398 122.264V120.68H159.802V122.264C159.802 124.64 161.422 126.782 163.762 127.628L163.042 128.744C161.224 128.024 159.802 126.62 159.118 124.82C158.434 126.746 157.03 128.276 155.194 129.032L154.438 127.916ZM157.102 135.08V130.22H158.47V133.928H167.686V135.08H157.102ZM188.606 128.06V129.212H182.27V132.272H180.902V129.212H174.314V128.06H188.606ZM176.15 135.08V130.832H177.518V133.928H187.022V135.08H176.15ZM176.222 126.548V120.284H177.59V122.3H185.33V120.284H186.734V126.548H176.222ZM177.59 125.432H185.33V123.38H177.59V125.432ZM204.163 126.368V127.484H189.907V126.368H204.163ZM191.635 129.968V128.888H202.291V132.524H193.003V134.108H202.759V135.26H191.671V131.48H200.959V129.968H191.635ZM191.779 125.072V120.356H202.291V121.472H193.183V123.956H202.435V125.072H191.779ZM210.575 120.932C213.023 120.95 214.751 122.444 214.787 124.604C214.751 126.782 213.023 128.276 210.575 128.276C208.091 128.276 206.327 126.782 206.327 124.604C206.327 122.444 208.091 120.95 210.575 120.932ZM205.535 130.832C208.415 130.85 212.393 130.814 215.867 130.292L215.975 131.336C212.393 132.002 208.541 132.02 205.715 132.02L205.535 130.832ZM207.695 124.604C207.695 126.062 208.901 127.07 210.575 127.088C212.213 127.07 213.419 126.062 213.419 124.604C213.419 123.164 212.213 122.156 210.575 122.156C208.901 122.156 207.695 123.164 207.695 124.604ZM216.875 135.44V119.816H218.279V135.44H216.875ZM239.74 128.924V130.04H225.52V128.924H239.74ZM226.24 122.372V121.292H231.928V119.6H233.296V121.292H238.912V122.372H226.24ZM227.356 135.08V131.156H228.724V133.964H238.156V135.08H227.356ZM227.536 125.468C227.536 123.902 229.39 123.056 232.612 123.056C235.816 123.056 237.688 123.902 237.688 125.468C237.688 127.034 235.816 127.88 232.612 127.88C229.39 127.88 227.536 127.034 227.536 125.468ZM228.94 125.468C228.94 126.368 230.272 126.854 232.612 126.836C234.952 126.854 236.302 126.368 236.284 125.468C236.302 124.604 234.952 124.082 232.612 124.064C230.272 124.082 228.94 124.604 228.94 125.468ZM246.513 122.696C246.495 124.712 248.061 126.656 250.365 127.448L249.645 128.528C247.863 127.898 246.495 126.602 245.829 125C245.145 126.8 243.687 128.222 241.833 128.888L241.113 127.808C243.435 126.98 245.109 124.892 245.109 122.696V122.012H241.581V120.896H250.005V122.012H246.513V122.696ZM243.489 131.12V130.004H254.001V135.44H252.633V131.12H243.489ZM249.501 125.036V123.884H252.633V119.816H254.001V129.176H252.633V125.036H249.501ZM263.725 120.824C267.001 120.824 269.449 122.534 269.449 125.108C269.449 127.718 267.001 129.41 263.725 129.392C260.467 129.41 258.019 127.718 258.037 125.108C258.019 122.534 260.467 120.824 263.725 120.824ZM256.633 133.352V132.2H270.925V133.352H256.633ZM259.333 125.108C259.333 126.998 261.223 128.276 263.725 128.276C266.245 128.276 268.117 126.998 268.117 125.108C268.117 123.236 266.245 121.922 263.725 121.94C261.223 121.922 259.333 123.236 259.333 125.108ZM286.482 132.308V133.496H272.19V132.308H278.598V129.392H273.954V124.568H283.314V122.12H273.918V120.968H284.682V125.684H275.322V128.24H285.042V129.392H279.966V132.308H286.482ZM296.999 120.536C299.285 120.536 300.869 121.76 300.887 123.632C300.869 125.252 299.609 126.422 297.719 126.656V128.186C299.177 128.096 300.671 127.97 302.039 127.772L302.147 128.78C298.835 129.392 295.091 129.446 292.391 129.428L292.211 128.312C293.435 128.312 294.857 128.294 296.351 128.24V126.656C294.407 126.44 293.111 125.27 293.111 123.632C293.111 121.76 294.713 120.536 296.999 120.536ZM294.407 123.632C294.407 124.82 295.469 125.63 296.999 125.648C298.529 125.63 299.573 124.82 299.591 123.632C299.573 122.408 298.529 121.598 296.999 121.616C295.469 121.598 294.407 122.408 294.407 123.632ZM294.515 135.08V130.724H295.883V133.928H304.991V135.08H294.515ZM303.047 131.768V119.816H304.415V125.108H306.755V126.296H304.415V131.768H303.047ZM313.167 122.264C313.149 124.496 314.733 126.458 317.055 127.232L316.263 128.312C314.535 127.664 313.185 126.386 312.501 124.748C311.835 126.62 310.413 128.078 308.523 128.78L307.767 127.664C310.179 126.818 311.781 124.73 311.799 122.3V120.716H313.167V122.264ZM310.323 132.488C310.305 130.598 312.303 129.518 315.543 129.5C318.801 129.518 320.799 130.598 320.799 132.488C320.799 134.342 318.801 135.386 315.543 135.404C312.303 135.386 310.305 134.342 310.323 132.488ZM311.691 132.488C311.673 133.604 313.167 134.288 315.543 134.288C317.937 134.288 319.431 133.604 319.431 132.488C319.431 131.3 317.937 130.598 315.543 130.616C313.167 130.598 311.673 131.3 311.691 132.488ZM315.867 124.28V123.164H319.359V119.816H320.727V129.068H319.359V124.28H315.867ZM332.648 126.548V127.7H329.228V130.76C330.758 130.706 332.306 130.598 333.764 130.436L333.872 131.48C330.398 131.966 326.618 132.038 323.612 132.02L323.432 130.868C324.782 130.868 326.294 130.85 327.86 130.814V127.7H324.62V121.292H332.612V122.408H325.988V126.548H332.648ZM334.772 135.44V119.816H336.176V135.44H334.772ZM351.517 124.532V125.648H340.825V120.392H342.193V124.532H351.517ZM338.881 128.888V127.772H353.173V128.888H338.881ZM340.753 135.044V130.508H342.121V133.892H351.625V135.044H340.753ZM363.365 120.752C365.741 120.734 367.451 122.246 367.469 124.424C367.451 126.62 365.741 128.114 363.365 128.132C360.989 128.114 359.243 126.62 359.261 124.424C359.243 122.246 360.989 120.734 363.365 120.752ZM360.629 124.424C360.593 125.918 361.763 126.944 363.365 126.944C364.949 126.944 366.101 125.918 366.137 124.424C366.101 122.948 364.949 121.922 363.365 121.94C361.763 121.922 360.593 122.948 360.629 124.424ZM360.953 130.94V129.824H371.177V135.44H369.809V130.94H360.953ZM369.809 128.996V119.816H371.177V123.848H373.517V125H371.177V128.996H369.809ZM388.822 132.272V133.424H374.53V132.272H380.938V128.888H376.222V120.896H377.59V123.74H385.69V120.896H387.058V128.888H382.306V132.272H388.822ZM377.59 127.772H385.69V124.856H377.59V127.772ZM404.378 132.308V133.496H390.086V132.308H396.494V129.392H391.85V124.568H401.21V122.12H391.814V120.968H402.578V125.684H393.218V128.24H402.938V129.392H397.862V132.308H404.378ZM417.235 120.824C420.565 120.842 422.959 122.444 422.959 124.928C422.959 127.232 420.889 128.762 417.919 128.978V132.272H424.435V133.424H410.143V132.272H416.551V128.978C413.617 128.762 411.529 127.232 411.547 124.928C411.529 122.444 413.941 120.842 417.235 120.824ZM412.879 124.928C412.861 126.71 414.715 127.88 417.235 127.88C419.773 127.88 421.627 126.71 421.627 124.928C421.627 123.146 419.773 121.958 417.235 121.976C414.715 121.958 412.861 123.146 412.879 124.928ZM438.3 123.56V124.712H427.608V120.068H428.976V123.56H438.3ZM425.664 127.376V126.26H439.956V127.376H425.664ZM427.464 129.86V128.78H438.12V132.416H428.868V134.108H438.696V135.224H427.5V131.372H436.788V129.86H427.464ZM446.368 120.932C448.816 120.95 450.544 122.444 450.58 124.604C450.544 126.782 448.816 128.276 446.368 128.276C443.884 128.276 442.12 126.782 442.12 124.604C442.12 122.444 443.884 120.95 446.368 120.932ZM441.328 130.832C444.208 130.85 448.186 130.814 451.66 130.292L451.768 131.336C448.186 132.002 444.334 132.02 441.508 132.02L441.328 130.832ZM443.488 124.604C443.488 126.062 444.694 127.07 446.368 127.088C448.006 127.07 449.212 126.062 449.212 124.604C449.212 123.164 448.006 122.156 446.368 122.156C444.694 122.156 443.488 123.164 443.488 124.604ZM452.668 135.44V119.816H454.072V135.44H452.668ZM474.201 119.816V131.228H472.833V119.816H474.201ZM461.673 124.748C461.655 122.48 463.419 120.914 465.777 120.896C468.099 120.914 469.845 122.48 469.845 124.748C469.845 127.016 468.099 128.6 465.777 128.564C463.419 128.6 461.655 127.016 461.673 124.748ZM463.005 124.748C463.005 126.296 464.175 127.376 465.777 127.376C467.307 127.376 468.513 126.296 468.513 124.748C468.513 123.218 467.307 122.12 465.777 122.12C464.175 122.12 463.005 123.218 463.005 124.748ZM464.121 135.08V130.076H465.489V133.928H474.705V135.08H464.121ZM489.794 119.816V131.372H488.426V127.124H484.394C483.656 128.06 482.504 128.618 481.154 128.6C478.814 128.618 477.086 126.998 477.122 124.712C477.086 122.426 478.814 120.806 481.154 120.788C482.486 120.806 483.638 121.346 484.358 122.264H488.426V119.816H489.794ZM478.418 124.712C478.418 126.278 479.57 127.394 481.154 127.412C482.702 127.394 483.872 126.278 483.854 124.712C483.872 123.164 482.702 122.048 481.154 122.012C479.57 122.048 478.418 123.164 478.418 124.712ZM479.786 135.08V130.148H481.154V133.928H490.262V135.08H479.786ZM484.988 126.008H488.426V123.416H484.988C485.114 123.812 485.186 124.244 485.186 124.712C485.186 125.18 485.114 125.612 484.988 126.008ZM499.518 120.068C503.01 120.086 505.044 121.04 505.026 122.768C505.044 124.532 503.01 125.504 499.518 125.504C496.044 125.504 493.992 124.532 493.974 122.768C493.992 121.04 496.044 120.086 499.518 120.068ZM492.426 127.7V126.584H506.646V127.7H492.426ZM494.154 130.112V129.032H504.81V132.524H495.522V134.144H505.278V135.26H494.19V131.516H503.478V130.112H494.154ZM495.45 122.768C495.414 123.848 496.944 124.46 499.518 124.46C502.128 124.46 503.64 123.848 503.622 122.768C503.64 121.742 502.128 121.13 499.518 121.112C496.944 121.13 495.414 121.742 495.45 122.768ZM525.371 119.816V135.44H524.003V119.816H525.371ZM512.663 131.372C516.893 129.356 519.053 126.35 519.359 122.624H513.383V121.508H520.763C520.745 125.99 518.657 129.968 513.419 132.488L512.663 131.372ZM542.296 128.42V129.536H528.004V128.42H534.484V126.764H529.876V122.948H539.092V121.328H529.804V120.212H540.46V123.992H531.244V125.648H540.82V126.764H535.816V128.42H542.296ZM529.588 131.876V130.76H540.568V135.296H539.164V131.876H529.588ZM555.8 119.816V123.812H558.14V124.964H555.8V128.888H554.432V119.816H555.8ZM543.632 122.552V121.436H547.592V119.672H548.96V121.436H552.92V122.552H543.632ZM544.532 126.008C544.496 124.352 546.008 123.29 548.276 123.272C550.526 123.29 552.02 124.352 552.02 126.008C552.02 127.682 550.526 128.762 548.276 128.744C546.008 128.762 544.496 127.682 544.532 126.008ZM545.828 126.008C545.828 127.034 546.8 127.718 548.276 127.7C549.734 127.718 550.724 127.034 550.724 126.008C550.724 125.018 549.734 124.334 548.276 124.352C546.8 124.334 545.828 125.018 545.828 126.008ZM545.936 135.224V129.572H547.304V131.228H554.432V129.572H555.8V135.224H545.936ZM547.304 134.108H554.432V132.344H547.304V134.108ZM572.005 119.816V135.44H570.637V119.816H572.005ZM560.161 131.408V121.328H561.529V130.184C563.905 130.202 566.353 130.004 568.981 129.464L569.161 130.616C566.407 131.21 563.923 131.408 561.421 131.408H560.161ZM586.806 119.816V125.972H589.398V127.124H586.806V135.44H585.402V119.816H586.806ZM575.394 131.552V121.328H582.666V122.48H576.762V130.364C579.588 130.364 581.586 130.256 583.89 129.824L584.07 131.012C581.64 131.444 579.588 131.534 576.618 131.552H575.394ZM591.922 134.108C591.292 134.108 590.77 133.586 590.77 132.956C590.77 132.344 591.292 131.84 591.922 131.84C592.534 131.84 593.038 132.344 593.038 132.956C593.038 133.586 592.534 134.108 591.922 134.108Z" fill="black"/>
</svg>
